<svg id="usericon" xmlns="http://www.w3.org/2000/svg" width="192" height="192" viewBox="0 0 192 192">
  <defs>
    <style>
      .cls-1 {
        fill: #25ae88;
        fill-rule: evenodd;
      }
    </style>
  </defs>
  <path class="cls-1" d="M3.383,96.184A92.616,92.616,0,1,0,96,3.567,92.721,92.721,0,0,0,3.383,96.184Zm7.409,0A85.207,85.207,0,1,1,96,181.39,85.3,85.3,0,0,1,10.793,96.184Z"/>
  <path id="icn_user" class="cls-1" d="M145.2,147.317h-9.648a19.3,19.3,0,0,1-19.3-19.3v-6.2a48.783,48.783,0,0,0,9.233-17.417c0.2-1.069,1.225-1.6,1.913-2.332a11.929,11.929,0,0,0,1.648-14.363c-0.377-.674-1.055-1.258-1.017-2.092,0-5.658.028-11.325-.009-16.978-0.151-6.826-2.1-13.926-6.888-18.981A26.926,26.926,0,0,0,106.5,42.1a48.606,48.606,0,0,0-21,.49A25.435,25.435,0,0,0,70.536,52.722,29.254,29.254,0,0,0,65.919,68c-0.085,5.757-.019,11.528-0.038,17.3,0.132,1.154-.848,1.936-1.29,2.892a11.958,11.958,0,0,0,2.732,14.627c1.064,0.736,1.262,2.073,1.649,3.227a46.647,46.647,0,0,0,8.7,15.565v6.407a19.3,19.3,0,0,1-19.3,19.3H48.724s-17.487,4.824-28.944,28.944v9.648a9.643,9.643,0,0,0,9.648,9.648H164.5a9.643,9.643,0,0,0,9.648-9.648v-9.648C162.69,152.141,145.2,147.317,145.2,147.317Zm-134.41-49.2A85.207,85.207,0,1,1,96,183.32,85.3,85.3,0,0,1,10.793,98.113Z"/>
</svg>
