<svg xmlns="http://www.w3.org/2000/svg" width="64" height="64" viewBox="0 0 64 64">
  <defs>
    <style>
      .cls-1 {
        fill: #25ae88;
        fill-rule: evenodd;
      }
    </style>
  </defs>
  <path id="calender" class="cls-1" d="M50.934,59.166H12.492a7,7,0,0,1-6.989-7V13.659a7,7,0,0,1,6.989-7h6.989V4.907a1.747,1.747,0,1,1,3.495,0V6.658H40.449V4.907a1.747,1.747,0,1,1,3.495,0V6.658h6.99a7,7,0,0,1,6.989,7V52.164A7,7,0,0,1,50.934,59.166Zm3.495-45.507a3.5,3.5,0,0,0-3.495-3.5h-6.99v1.75a1.747,1.747,0,1,1-3.495,0v-1.75H22.976v1.75a1.747,1.747,0,1,1-3.495,0v-1.75H12.492A3.5,3.5,0,0,0,9,13.659v3.5H54.428v-3.5Zm0,7H9v31.5a3.5,3.5,0,0,0,3.495,3.5H50.934a3.5,3.5,0,0,0,3.495-3.5V20.66Zm-6.989,31.5H43.944a3.5,3.5,0,0,1-3.495-3.5v-3.5a3.5,3.5,0,0,1,3.495-3.5h3.495a3.5,3.5,0,0,1,3.495,3.5v3.5A3.5,3.5,0,0,1,47.439,52.164Zm0-7H43.944v3.5h3.495v-3.5Zm0-7H43.944a3.5,3.5,0,0,1-3.495-3.5v-3.5a3.5,3.5,0,0,1,3.495-3.5h3.495a3.5,3.5,0,0,1,3.495,3.5v3.5A3.5,3.5,0,0,1,47.439,38.162Zm0-7H43.944v3.5h3.495v-3.5Zm-13.979,21H29.965a3.5,3.5,0,0,1-3.495-3.5v-3.5a3.5,3.5,0,0,1,3.495-3.5H33.46a3.5,3.5,0,0,1,3.495,3.5v3.5A3.5,3.5,0,0,1,33.46,52.164Zm0-7H29.965v3.5H33.46v-3.5Zm0-7H29.965a3.5,3.5,0,0,1-3.495-3.5v-3.5a3.5,3.5,0,0,1,3.495-3.5H33.46a3.5,3.5,0,0,1,3.495,3.5v3.5A3.5,3.5,0,0,1,33.46,38.162Zm0-7H29.965v3.5H33.46v-3.5Zm-13.979,21H15.986a3.5,3.5,0,0,1-3.495-3.5v-3.5a3.5,3.5,0,0,1,3.495-3.5h3.495a3.5,3.5,0,0,1,3.495,3.5v3.5A3.5,3.5,0,0,1,19.481,52.164Zm0-7H15.986v3.5h3.495v-3.5Zm0-7H15.986a3.5,3.5,0,0,1-3.495-3.5v-3.5a3.5,3.5,0,0,1,3.495-3.5h3.495a3.5,3.5,0,0,1,3.495,3.5v3.5A3.5,3.5,0,0,1,19.481,38.162Zm0-7H15.986v3.5h3.495v-3.5Z"/>
</svg>
