<svg xmlns="http://www.w3.org/2000/svg" width="96" height="96" viewBox="0 0 96 96">
  <defs>
    <style>
      .cls-1 {
        fill: #25ae88;
        fill-rule: evenodd;
      }
    </style>
  </defs>
  <path class="cls-1" d="M42.6,51.069c-3.408-5.335-6.345-9.718-9.062-14.236-4.517-7.511-3.265-15.844,3.017-21.137a15.971,15.971,0,0,1,20.428.09c6.161,5.282,7.368,13.85,2.873,21.18-2.731,4.454-5.618,8.811-9,14.1,6.232,0,11.445.069,16.655-.021,4.418-.076,7.172,1.58,8.489,6.166,1.949,6.79,4.521,13.4,6.7,20.123,1.406,4.339.029,6.563-4.483,6.59q-30.154.183-60.309,0c-4.809-.03-6.009-2.188-4.419-7.041,2.2-6.72,4.674-13.356,6.672-20.136,1.217-4.131,3.808-5.671,7.744-5.679C32.474,51.063,37.05,51.069,42.6,51.069ZM47.9,79.62c8.63,0,17.262-.123,25.888.062,3.284,0.07,3.787-.739,2.752-3.866-2.051-6.2-3.707-12.534-5.371-18.855-0.5-1.9-1.02-3.633-3.3-3.242-6.816,1.169-14.24-2.841-20.578,2.491-0.984.828-1.5-.288-1.932-0.993C44.5,53.8,43.2,53.644,41.721,53.659c-4.4.045-8.81,0.127-13.207-.036-2.24-.084-3.059.993-3.594,2.914-1.8,6.465-3.6,12.931-5.579,19.342-1,3.259.216,3.855,3.2,3.8C30.994,79.512,39.45,79.619,47.9,79.62ZM46.59,33.966c3.892-.232,6.112-2.478,6.056-6.079C52.589,24.312,50.358,21.9,46.529,22c-3.549.088-5.566,2.347-5.679,5.765C40.726,31.523,42.955,33.564,46.59,33.966Zm-5.55,41.4c-4.222,0-8.444.052-12.664-.032-1.17-.023-3.357.7-2.714-1.758,0.428-1.634-.279-4.51,2.455-4.563,9.143-.177,18.292-0.125,27.437-0.042C58.477,69,57.1,71.6,57.547,73.036c0.616,1.965-.581,2.366-2.26,2.349C50.538,75.335,45.789,75.367,41.04,75.368Zm21.815-20.5c2.188,7.076,2.982,13.438,4.1,19.719,0.171,0.961.062,1.786-1.173,1.818a1.329,1.329,0,0,1-1.357-1.287c-0.116-.518-0.271-1.027-0.4-1.542-1.949-7.615-1.949-7.616-9.875-7.617H31.106q-0.031-.752-0.061-1.5h11.4c5.1,0,10.215-.248,15.293.078,4.073,0.261,5.553-.771,3.976-4.93C61.322,58.563,61.051,57.176,62.855,54.865ZM36.1,62.889c-1.648-1.4-4.79,1.452-5.1-2.027-0.348-3.915,2.783-3.9,5.405-3.447,1.767,0.306,4.956-1.9,4.983,2.351C41.418,64.363,37.766,61.531,36.1,62.889Zm17.595-.22c-1.834-.869-4.968,1.54-5.137-2.637-0.172-4.243,2.934-2.577,4.74-2.6,2.052-.028,5.3-1.521,5.249,2.791S55.136,61.523,53.7,62.669Z"/>
</svg>
