<svg xmlns="http://www.w3.org/2000/svg" width="96" height="96" viewBox="0 0 96 96">
  <defs>
    <style>
      .cls-1 {
        fill: #25ae88;
        fill-rule: evenodd;
      }
    </style>
  </defs>
  <path class="cls-1" d="M47.039,12.006c12.464,0,24.736,5.735,24.736,19.451,0,12.649-14.51,17.514-17.626,22.084-2.339,3.4-1.558,8.177-7.985,8.177-4.187,0-6.232-3.4-6.232-6.515C39.931,43.62,56.969,41,56.969,31.46c0-5.25-3.5-8.363-9.344-8.363-12.464,0-7.6,12.837-17.037,12.837-3.408,0-6.333-2.043-6.333-5.932C24.252,20.461,35.156,12.006,47.039,12.006ZM46.554,68.034a7.98,7.98,0,1,1-7.988,7.98A8.02,8.02,0,0,1,46.554,68.034Z"/>
</svg>
