<svg xmlns="http://www.w3.org/2000/svg" width="96" height="96" viewBox="0 0 96 96">
  <defs>
    <style>
      .cls-1 {
        fill: #fff;
        fill-rule: evenodd;
      }
    </style>
  </defs>
  <path id="side_menu" class="cls-1" d="M40.328,40.813H55.672a7.641,7.641,0,0,1,0,15.281H40.328A7.641,7.641,0,0,1,40.328,40.813Zm0.009,27.875H55.663a7.65,7.65,0,0,1,7.65,7.65V76.35A7.65,7.65,0,0,1,55.663,84H40.338a7.65,7.65,0,0,1-7.65-7.65V76.338A7.65,7.65,0,0,1,40.338,68.688Zm0-56.687H55.663a7.65,7.65,0,0,1,7.65,7.65v0.013a7.65,7.65,0,0,1-7.65,7.65H40.338a7.65,7.65,0,0,1-7.65-7.65V19.65A7.65,7.65,0,0,1,40.338,12Z"/>
</svg>
