<svg id="Audit" xmlns="http://www.w3.org/2000/svg" width="144" height="144" viewBox="0 0 144 144">
  <defs>
    <style>
      .cls-1 {
        fill: #44b494;
        fill-rule: evenodd;
      }
    </style>
  </defs>
  <path class="cls-1" d="M120.65,58.886c-14.98,18.849-28.013,38.345-37.731,60.189a169.563,169.563,0,0,0-9.242-15.9A170.7,170.7,0,0,0,57.843,82.6,46.567,46.567,0,0,0,53.31,78.48c-0.98-.834-1.24-1.585-0.163-2.563,1.6-1.455,3.162-2.961,4.7-4.486a2.153,2.153,0,0,1,2.948-.291c6.939,3.736,12.807,8.864,18.545,14.15,1.281,1.18,1.834,1.32,2.97-.232,10.037-13.715,21.4-26.3,33.26-38.439a23.827,23.827,0,0,1,2.735-2.5c2.088-1.555,2.759-3.65,2.8-6.145a73.684,73.684,0,0,0-.542-8.7,30.809,30.809,0,0,1,.016-7.735h-11c-4.089,0-8.179-.069-12.266.034-1.6.041-1.311-.94-1.233-1.792,0.074-.807-0.661-2.084,1.168-2.044,7.431,0.162,14.858-.086,22.284-0.348a12.968,12.968,0,0,1,1.484.061c3.043,0.243,4.141,1.327,4.41,4.415a46.876,46.876,0,0,1-.51,8.509,33.27,33.27,0,0,0-.163,5.373c0.032,0.471-.122,1.118.457,1.289a1.409,1.409,0,0,0,1.221-.707,2.1,2.1,0,0,0,.376-0.409c1.939-3.217,4.939-3.608,8.268-3.1a27.423,27.423,0,0,0,4.815.263c0.433-.01,1.056-0.387,1.292.287a1.285,1.285,0,0,1-.547,1.3c-3.433,3.406-6.458,7.169-9.555,10.867-1.709,2.04-3.313,4.167-5.019,6.209a4.4,4.4,0,0,0-1.025,3.038q0.072,36.316.085,72.631a49.3,49.3,0,0,1-.608,6.829,1.4,1.4,0,0,1-1.647,1.436c-4.331.071-8.66,0.234-12.991,0.348-12.321.325-24.645,0.3-36.969,0.238-11.517-.057-23.033-0.273-34.55-0.319-2.031-.008-2.119-1.442-2.388-2.668-0.683-3.113-.4-6.282-0.229-9.431,0.1-1.731.653-3.724-.151-5.107-0.816-1.4-3-.856-4.575-1.193-2.862-.614-5.68-1.3-8.051-3.116a1.383,1.383,0,0,0-1.83.078,16.818,16.818,0,0,0-4.325,4.546,45.029,45.029,0,0,1-5.477,6.773c-1.712,1.561-3.646,2.595-6.047,2.248-2.679-.387-3.819-2.256-2.953-4.836,0.954-2.845,3.007-4.945,5-7.064a73.952,73.952,0,0,1,7.211-6.414c1.195-.979,1.466-1.662.648-3.174-7.25-13.4.96-30.415,15.946-33.218,0.3-.057.607-0.121,0.914-0.153,3.654-.39,3.654-0.388,3.654-4.182q0-17.183-.008-34.367c-0.005-3.031-.107-6.061-0.162-9.091-0.008-.433-0.029-0.869,0-1.3,0.528-6.819.989-6.1,6.252-6.481,7.24-.521,14.482.224,21.721-0.058,1.8-.07,1.136,1.21,1.2,2.042,0.069,0.876.309,1.806-1.266,1.789-7.124-.079-14.249.008-21.373-0.071-1.376-.015-1.75.341-1.788,1.708-0.449,16.28-.107,32.562-0.259,48.842-0.011,1.234.59,1.534,1.512,1.9,5.279,2.068,10.02,4.918,13.183,9.8,7.789,12.015,1.953,28.069-11.907,32.865a6.178,6.178,0,0,1-1.234.388c-1.211.144-1.576,0.761-1.548,1.978q0.124,5.385,0,10.773c-0.031,1.307.205,1.811,1.68,1.807,4.764-.013,9.529.239,14.293,0.246,20.878,0.032,41.756,0,62.634.05,1.565,0,2.067-.273,2.062-1.985q-0.1-34.459-.046-68.919V58.886ZM34.86,114.063a19.9,19.9,0,0,0,3.952-.405c10.83-1.645,17.479-11.306,15.089-21.909A19.3,19.3,0,0,0,33.79,76.587c-10.666.514-17.23,6.486-18.2,17.036-0.792,8.578,2.21,15.411,10.13,18.727A23.526,23.526,0,0,0,34.86,114.063Zm45.461-73.21c-9.907,0-19.815-.022-29.722.027-1.264.006-1.813-.165-1.848-1.637-0.078-3.268-.635-6.541.111-9.789a5.419,5.419,0,0,1,5.1-4.6c3.162-.444,6.3.064,9.441,0.251,4.278,0.255,4.346.269,4.258-3.993-0.033-1.606-.156-3.211-0.159-4.817-0.007-3.412,1.455-6.078,4.6-7.41a19.362,19.362,0,0,1,18.132,1.295c2.628,1.537,3.126,4.116,3.03,6.909-0.073,2.1-.078,4.206-0.2,6.3-0.065,1.142.26,1.607,1.5,1.69a78.432,78.432,0,0,0,7.959-.319,25.5,25.5,0,0,1,4.067.082c3.389,0.427,5.276,2.246,5.469,5.691,0.17,3.022.006,6.062,0.063,9.092,0.018,0.966-.514.892-1.165,0.925-7.423.375-14.851,0.288-22.278,0.3Q84.5,40.858,80.321,40.853Zm0.4-25.322c-2.73.027-4.405,1.445-4.371,3.7,0.036,2.422,2.041,4.609,4.2,4.584,2.133-.025,3.869-2.1,3.865-4.619A3.346,3.346,0,0,0,80.721,15.53ZM20.06,96.979c-2.094-3.525-1.559-7.7,1.269-11.44,3.34-4.419,9.4-6.838,14.1-5.576a5.128,5.128,0,0,1-3.951,2.757c-5.7.919-8.434,4.666-9.908,9.788C21.155,93.927,20.625,95.31,20.06,96.979Z"/>
</svg>
