<svg xmlns="http://www.w3.org/2000/svg" width="96" height="96" viewBox="0 0 96 96">
  <defs>
    <style>
      .cls-1 {
        fill: #25ae88;
        stroke: #25ae88;
        stroke-width: 1px;
        fill-rule: evenodd;
      }
    </style>
  </defs>
  <path id="Logout" class="cls-1" d="M85.707,45.8l-8.273-5.831a2.267,2.267,0,0,0-3.571,1.851v3.566H34.14a2.265,2.265,0,1,0,0,4.529H73.863v3.566a2.268,2.268,0,0,0,3.571,1.851L85.707,49.5A2.268,2.268,0,0,0,85.707,45.8ZM74.352,62.195a2.266,2.266,0,0,0-3.1.826,30.738,30.738,0,1,1,0-30.735,2.265,2.265,0,0,0,3.922-2.268,35.267,35.267,0,1,0,0,35.271A2.265,2.265,0,0,0,74.352,62.195Z"/>
</svg>
