<svg xmlns="http://www.w3.org/2000/svg" width="96" height="96" viewBox="0 0 96 96">
  <defs>
    <style>
      .cls-1 {
        fill: #44b494;
        fill-rule: evenodd;
      }
    </style>
  </defs>
  <path class="cls-1" d="M67.55,40.341q-4.228,0-8.457,0a2.619,2.619,0,0,1-2.718-2.722c0-5.318.014-10.636-.012-15.954a2.724,2.724,0,0,1,1.778-2.707,3.279,3.279,0,0,1,1.089-.148c0.881,0,1.762-.009,2.643.008,0.24,0,.3-0.069.282-0.293-0.02-.335-0.009-0.671,0-1.007a1.143,1.143,0,1,1,2.285-.018c0.01,0.376.008,0.752,0,1.127,0,0.149.042,0.188,0.189,0.188q3.243-.007,6.486,0c0.148,0,.193-0.04.189-0.188-0.01-.359-0.007-0.72,0-1.079a1.144,1.144,0,1,1,2.283.019c0,0.336.01,0.672,0,1.008-0.008.182,0.037,0.245,0.233,0.242,0.753-.012,1.505-0.01,2.258,0a2.631,2.631,0,0,1,2.633,2,2.872,2.872,0,0,1,.078.713q0,8.049,0,16.1a2.625,2.625,0,0,1-2.723,2.721Q71.8,40.343,67.55,40.341ZM67.576,26.69h0q-4.806,0-9.611,0c-0.165,0-.233.027-0.233,0.22q0.011,5.338.006,10.677a1.268,1.268,0,0,0,1.4,1.39q2.03,0,4.061,0H76.056a1.382,1.382,0,0,0,.609-0.111,1.286,1.286,0,0,0,.751-1.281q0-5.279,0-10.557c0-.335,0-0.337-0.348-0.337H67.576Zm0-1.535h2.739q3.448,0,6.9,0c0.122,0,.21,0,0.209-0.169-0.007-1.184.007-2.367-.009-3.551a1.228,1.228,0,0,0-1.294-1.251c-0.777,0-1.554,0-2.331-.006-0.169,0-.213.043-0.21,0.211,0.01,0.736.009,1.471,0,2.207a1.142,1.142,0,1,1-2.282-.055q-0.011-1.08,0-2.159a0.162,0.162,0,0,0-.2-0.2q-3.232.008-6.463,0c-0.154,0-.2.038-0.2,0.2,0.008,0.728.01,1.456,0,2.183a1.144,1.144,0,1,1-2.285-.035c0-.712,0-1.424,0-2.135,0-.165-0.036-0.215-0.208-0.213-0.945.009-1.89,0-2.835,0a1.256,1.256,0,0,0-1.374,1.369c0,1.112.006,2.224-.006,3.335,0,0.226.068,0.273,0.282,0.273Q62.793,25.15,67.575,25.155ZM63.85,33.83a3.725,3.725,0,1,1,3.734,3.715A3.712,3.712,0,0,1,63.85,33.83Zm3.719,3.011a3.024,3.024,0,1,0-3.022-3A3.026,3.026,0,0,0,67.569,36.842Zm-3.6-5.952a0.531,0.531,0,0,1,.195-0.372c0.244-.217.485-0.438,0.734-0.65a0.614,0.614,0,0,1,.976.236c0.037,0.085-.018.1-0.066,0.12A4.159,4.159,0,0,0,64.382,31.4c-0.036.046-.071,0.091-0.132,0.027A0.735,0.735,0,0,1,63.974,30.89ZM69.941,29.7a0.6,0.6,0,0,1,.3.154c0.244,0.218.493,0.429,0.731,0.652a0.559,0.559,0,0,1-.063.906c-0.083.063-.112,0.015-0.15-0.036a3.943,3.943,0,0,0-1.414-1.151c-0.1-.05-0.111-0.092-0.034-0.174A0.768,0.768,0,0,1,69.941,29.7Zm2.535,1.479a0.384,0.384,0,0,1,0,.048c-0.012.1,0.051,0.262-.115,0.267s-0.125-.154-0.128-0.258a2.683,2.683,0,0,0-2.516-2.634c-0.12-.009-0.336.063-0.331-0.126,0.005-.209.225-0.129,0.351-0.122A2.924,2.924,0,0,1,72.477,31.183Zm-9.8-.015a2.935,2.935,0,0,1,2.851-2.814,0.276,0.276,0,0,1,.207.038,0.107,0.107,0,0,1,.039.127,0.166,0.166,0,0,1-.183.082,2.61,2.61,0,0,0-1.328.358,2.674,2.674,0,0,0-1.341,2.272c0,0.04,0,.08,0,0.12a0.126,0.126,0,0,1-.117.152,0.122,0.122,0,0,1-.125-0.143C62.672,31.3,62.672,31.232,62.673,31.168Zm2.791-2.113a0.306,0.306,0,0,1,.048,0c0.1,0.014.26-.05,0.256,0.124,0,0.142-.144.117-0.246,0.12a1.909,1.909,0,0,0-1.348.587,2.039,2.039,0,0,0-.579,1.38c-0.005.1,0.026,0.238-.13,0.231-0.127-.006-0.114-0.13-0.115-0.226A2.241,2.241,0,0,1,65.463,29.055Zm4.206,0A2.243,2.243,0,0,1,71.8,31.271c0,0.1.012,0.219-.116,0.227-0.159.009-.126-0.131-0.13-0.229A2,2,0,0,0,69.677,29.3c-0.116,0-.3.051-0.292-0.141C69.4,28.986,69.578,29.082,69.67,29.055Zm-2.439,3.73c0-.376,0-0.752,0-1.127a0.346,0.346,0,1,1,.687,0c0,0.536.009,1.071,0,1.607,0,0.166.039,0.22,0.211,0.217,0.544-.011,1.089,0,1.633,0a0.346,0.346,0,0,1,.344.214,0.328,0.328,0,0,1-.056.359,0.367,0.367,0,0,1-.3.118c-0.769,0-1.537,0-2.306,0a0.184,0.184,0,0,1-.215-0.231c0.007-.384,0-0.767,0-1.151h0Z"/>
  <path class="cls-1" d="M28.552,77.677c0.823-1.961.648-3.681,1.036-5.293,0.169-.7.238-1.423,0.405-2.123a1.706,1.706,0,0,1,.684-1.227c3.37-1.944,6.916-3.26,10.8-1.944a30.333,30.333,0,0,1,3.774,1.692,2.144,2.144,0,0,1,1.123,1.741c0.36,2.18.691,4.364,1.032,6.544,0.464-.085.432-0.5,0.487-0.869,0.276-1.854.546-3.709,0.849-5.558a2.036,2.036,0,0,1,.8-1.628c3.328-1.9,6.809-3.175,10.684-1.974a32.061,32.061,0,0,1,3.9,1.768,1.962,1.962,0,0,1,1.055,1.624c0.313,1.945.594,3.9,0.9,5.841a0.875,0.875,0,0,0,.456.98c0.241-1.646.571-3.208,0.677-4.784,0.162-2.422,1.233-3.706,3.615-4.68a14.67,14.67,0,0,1,6.825-1.041c2.095,0.142,3.678,1.527,5.541,2.23a1.576,1.576,0,0,1,.788,1.315A93.034,93.034,0,0,1,85.44,82.742a0.646,0.646,0,0,1-.828.814c-0.287-.025-0.578,0-0.868,0q-36.162,0-72.324.039c-1.534,0-1.809-.394-1.672-1.833A105.634,105.634,0,0,1,11.09,70.6a2.312,2.312,0,0,1,1.187-1.856c2.817-1.37,5.634-2.563,8.928-2.022,2.052,0.337,3.678,1.538,5.529,2.271a1.867,1.867,0,0,1,.828,1.606A61.889,61.889,0,0,1,28.552,77.677Zm7.7-41.956c0,2.656-.01,5.127,0,7.6,0.014,2.743.024,5.486,0.093,8.228A0.857,0.857,0,0,1,35.28,52.6q-7.088-.052-14.177,0c-0.782.006-1.194-.19-1.127-1a3.141,3.141,0,0,0-1.645-2.925,66.257,66.257,0,0,1-7.817-6.629c-1.529-1.544-1.617-2.71-.28-4.44A87.044,87.044,0,0,1,19.421,27.43c1.255-1.181,3.113-1.17,4.635-1.864,0.537-.244.567,0.315,0.66,0.68q0.711,2.793,1.433,5.584a0.983,0.983,0,0,0,.5.812c0.112-1.21.225-2.357,0.321-3.506,0.055-.666-0.025-1.514.933-1.462,0.915,0.049.817,0.883,0.861,1.557a27.6,27.6,0,0,0,.391,3.321,25.839,25.839,0,0,0,1.32-4.988,7.252,7.252,0,0,0,.239-1.274c0.043-.828.425-0.95,1.134-0.685s1.459,0.5,2.2.7a5.668,5.668,0,0,1,3.464,2.536c1.458,2.209,3.617,3.841,5.6,5.6A0.951,0.951,0,0,0,44.4,34.39a60.816,60.816,0,0,0,6.821-4.329,5.526,5.526,0,0,1,2.769-1.444c0.786-.058.5-0.92,0.771-1.383,0.2-.343.12-1,0.743-0.819,0.493,0.142.289,0.648,0.178,1a2.865,2.865,0,0,0,.172,2.563A2.155,2.155,0,0,1,55,32.766a99.565,99.565,0,0,1-9.719,7.006c-1.736,1.03-2.427,1-4.063-.238C39.622,38.325,38.04,37.1,36.252,35.721Zm-16.4-.83-0.318-.146c-1.24,1.452-2.466,2.917-3.73,4.349a0.653,0.653,0,0,0,.075,1.083c1.275,1.137,2.545,2.28,3.972,3.56V34.89Zm22.271-3.033c-1.482-1.028-2.19-2.017-2.129-3.7,0.145-4.04.045-8.089,0.049-12.134,0-.665.129-1.269-0.918-1.37a1.363,1.363,0,0,1-1.132-1.729,1.474,1.474,0,0,1,1.486-1.312,7.27,7.27,0,0,1,.868-0.013q21.563,0,43.126,0a2.45,2.45,0,0,1,1.787.389,1.5,1.5,0,0,1-.544,2.637,1.028,1.028,0,0,0-.979,1.2q0.047,13.219.015,26.439c0,0.617-.013,1.082.854,1.143a1.3,1.3,0,0,1,1.175,1.544,1.46,1.46,0,0,1-1.464,1.485,8.9,8.9,0,0,1-1.156.026q-21.346,0-42.692,0a5.55,5.55,0,0,1-1.431-.114,1.382,1.382,0,0,1-1.064-1.382,1.2,1.2,0,0,1,.766-1.407c1.643-.147,1.285-1.274,1.3-2.257,0-.288,0-0.575,0-1.068,0.958,0.717,2.29.826,2.093,2.393-0.073.583,0.309,0.737,0.817,0.717,0.289-.011.579,0,0.868,0,12.012,0,24.024-.027,36.035.035,1.441,0.008,1.732-.42,1.722-1.776Q81.48,28.88,81.567,16.166c0.006-1.121-.282-1.455-1.435-1.451q-18.307.062-36.614,0c-1.175,0-1.434.352-1.422,1.461C42.153,21.32,42.122,26.467,42.122,31.858ZM75.487,65.793c-2.2.757-3.2-.908-3.974-2.773-1-2.415-1.389-4.865.555-7.032a4.809,4.809,0,0,1,5.4-1.36c2.554,0.828,3.846,3.315,3.311,6.265a11.222,11.222,0,0,1-.467,1.659C79.361,65.3,78.662,65.794,75.487,65.793Zm-56.15.032c-0.939-.263-2.011.532-2.855-0.474a8.829,8.829,0,0,1-2.2-6.082,5.011,5.011,0,0,1,3.15-4.588A5.167,5.167,0,0,1,23.018,55.9c2.161,2.289,1.485,8.029-1.154,9.765C21.05,66.2,20.169,65.589,19.337,65.825Zm18.793-.032c-2.727,0-3.459-.456-4.4-3.037-0.9-2.455-1.2-4.9.9-6.975a4.772,4.772,0,0,1,5.333-1.105,4.823,4.823,0,0,1,3.263,4.508,8.251,8.251,0,0,1-.557,3.39C41.674,65.312,41,65.791,38.129,65.793Zm18.45,0c-2.186.773-3.07-.946-3.87-2.718a7.145,7.145,0,0,1-.518-5.32A5.059,5.059,0,0,1,57.9,54.4a5.112,5.112,0,0,1,4.15,4.863,8.681,8.681,0,0,1-.486,3.111C60.562,65.28,59.872,65.785,56.579,65.794ZM23.256,16.565a4.65,4.65,0,1,1,9.3.044,10.2,10.2,0,0,1-2.043,5.9c-1.527,2.054-3.592,2.065-5.163.081A10.868,10.868,0,0,1,23.256,16.565Z"/>
</svg>
