<svg xmlns="http://www.w3.org/2000/svg" width="96" height="96" viewBox="0 0 96 96">
  <defs>
    <style>
      .cls-1 {
        fill: #44b494;
        fill-rule: evenodd;
      }
    </style>
  </defs>
  <path class="cls-1" d="M68.891,83.488A10.8,10.8,0,0,0,66.7,83.5a2.067,2.067,0,0,0-.952-0.009,10.8,10.8,0,0,0-2.188.009,2.067,2.067,0,0,0-.952-0.009,10.8,10.8,0,0,0-2.188.009,2.068,2.068,0,0,0-.952-0.009,10.8,10.8,0,0,0-2.188.009,2.068,2.068,0,0,0-.952-0.009,10.8,10.8,0,0,0-2.188.009,2.067,2.067,0,0,0-.952-0.009A10.8,10.8,0,0,0,51,83.5a2.067,2.067,0,0,0-.952-0.009,10.8,10.8,0,0,0-2.188.009,2.147,2.147,0,0,0-.952-0.013l-2.194-.09a0.986,0.986,0,0,0-.629-0.117l-2.026-.394-0.6-.2-1.6-.556a1.159,1.159,0,0,0-.635-0.291l-1.551-.848-0.223-.135-1.327-.916a1.814,1.814,0,0,0-.641-0.515L34.5,78.385l-0.1-.625a1.612,1.612,0,0,1,1.066-1.094l0.785-.008,2.355,0,0.785,0,2.354,0,0.785,0h3.987L44.587,74.61a1.7,1.7,0,0,0-.486-0.637L43.3,72.739a0.783,0.783,0,0,0-.285-0.476l-0.747-1.584-0.336-.843-0.439-1.514L41.355,67.7l-0.283-2.017A2.4,2.4,0,0,0,41,64.735a9.785,9.785,0,0,0,0-2.183,1.377,1.377,0,0,0-.039-0.952,7.067,7.067,0,0,0,.039-2.185,1.377,1.377,0,0,0-.039-0.952,7.067,7.067,0,0,0,.039-2.185,1.377,1.377,0,0,0-.039-0.952,0.307,0.307,0,0,0,.039-0.067c0.169-.594-0.249-1.423.194-1.754a3.785,3.785,0,0,1,1.8-.159,1.943,1.943,0,0,0,.949.009,10.168,10.168,0,0,0,2.191-.009,1.959,1.959,0,0,0,.953.009,10.125,10.125,0,0,0,2.187-.009,1.96,1.96,0,0,0,.953.009,10.129,10.129,0,0,0,2.187-.009,1.959,1.959,0,0,0,.953.009c2.822,0.064,5.644.083,8.466-.009a1.96,1.96,0,0,0,.953.009,10.129,10.129,0,0,0,2.187-.009,1.96,1.96,0,0,0,.953.009,10.154,10.154,0,0,0,2.191-.009,1.942,1.942,0,0,0,.948.009,10.125,10.125,0,0,0,2.187-.009,1.959,1.959,0,0,0,.953.009,10.128,10.128,0,0,0,2.187-.009,1.958,1.958,0,0,0,.953.009,10.129,10.129,0,0,0,2.187-.009,1.958,1.958,0,0,0,.953.009c0.371,0.041.333,0.312,0.333,0.573,0,0.31.018,0.619,0.028,0.929l0,0.79,0,2.346,0,0.79q0,0.311,0,.621l0.042,0.18,0.2-.184a4.978,4.978,0,0,1,3.16-1.251l0.745,0.1,1.383,0.4,0.7,0.439c2.183,1.854,1.868,5.351.5,7.038a19.2,19.2,0,0,1-3.334,3.18,25.465,25.465,0,0,1-2.613,1.858,19.047,19.047,0,0,0-6.144,5.486h2.8l0.785,0,2.354,0,0.785,0,2.354,0,0.785,0a3.375,3.375,0,0,1,1.706.324l0.333,0.462a1.641,1.641,0,0,1-.694,1.684,28.771,28.771,0,0,1-3.7,2.539l-1.409.63-3.3.936a2.026,2.026,0,0,0-.937.124l-2.354.14a2.09,2.09,0,0,0-.952-0.008,10.8,10.8,0,0,0-2.188.009A2.068,2.068,0,0,0,68.891,83.488ZM79.709,63.138a4.875,4.875,0,0,0-.421,1.448,12.543,12.543,0,0,0-.779,3.035c-0.074.3-.144,0.6-0.225,0.9-0.037.137-.227,0.278-0.066,0.407a0.407,0.407,0,0,0,.5-0.05,22.233,22.233,0,0,0,4.91-4.172,2.709,2.709,0,0,0,.537-2.335,1.425,1.425,0,0,0-1.135-1.566,0.694,0.694,0,0,0-.632-0.136,1.709,1.709,0,0,0-1.744.617A3.915,3.915,0,0,0,79.709,63.138ZM48.173,79.167l-2.355.005H39.424a13.991,13.991,0,0,0,5.14,1.691,8.622,8.622,0,0,0,2.2.157l0.788,0,2.352,0,0.788,0,2.352,0,0.788,0,2.352,0,0.788,0,2.352,0,0.788,0,2.352,0,0.788,0,2.352,0,0.788,0,2.352,0,0.788,0,2.352,0,0.788,0a9.274,9.274,0,0,0,2.509-.157,11.022,11.022,0,0,0,4.98-1.7H76.431l-2.355.005-0.785-.005-2.355.005-0.785-.005-2.355.005-0.785-.005-2.355.005-0.785-.005-2.355.005-0.785-.005-2.355.005-0.785-.005-2.355.005-0.785-.005-2.355.005-0.785-.005-2.355.005Zm-1.728-23.34c-0.836-.007-1.673,0-2.508-0.029a0.382,0.382,0,0,0-.484.478c0.034,0.834.023,1.67,0.031,2.5q0,0.393,0,.786,0,1.175,0,2.35,0,0.393,0,.786,0,1.175,0,2.35a1.4,1.4,0,0,0,.087.8,5.134,5.134,0,0,0,.329,1.869,0.851,0.851,0,0,0,.179.625,4.675,4.675,0,0,0,.634,1.725,1.036,1.036,0,0,0,.307.629,4.458,4.458,0,0,0,.816,1.408l0.349,0.5a4.854,4.854,0,0,0,1.029,1.231,1.826,1.826,0,0,0,.632.637,3.809,3.809,0,0,0,1.094.931,1.443,1.443,0,0,0,.638.465,2.544,2.544,0,0,0,1.569.779l0.785,0.005,2.355,0,0.785,0a7.3,7.3,0,0,0,2.5-.11c0.173,0.275.42,0.121,0.642,0.11a7.3,7.3,0,0,0,2.5-.11c0.173,0.275.42,0.121,0.642,0.11l2.355,0,0.785,0,2.354,0,0.785,0a2.873,2.873,0,0,0,1.6-.112,13.515,13.515,0,0,0,6.437-7.875,2.2,2.2,0,0,0,.3-1.106,8.511,8.511,0,0,0,.4-2.7l0-.909q0-1.173,0-2.347l0-.789,0-2.347,0-.789q0-.862,0-1.724c0.036-.108-0.01-0.14-0.112-0.122l-0.785-.005-0.788,0-2.352,0-0.788,0-2.352,0-0.788,0-2.352,0-0.788,0-2.352,0-0.788,0-2.352,0-0.788,0-2.352,0-0.788,0-2.352,0-0.788,0-2.352,0-0.788,0-2.352,0Zm1.377-19.485A32.894,32.894,0,0,1,46.342,40.1l-1.079,1.874a22.406,22.406,0,0,1-5.583,5.639l-1.863,1.08a33.123,33.123,0,0,1-3.773,1.489,3.62,3.62,0,0,0-1.1.283l-2.667.359-0.937.064-2.2-.07-0.785-.057-1.876-.322-0.761-.212L21.957,49.7l-0.592-.26-1.6-.7a0.823,0.823,0,0,0-.476-0.272l-1.4-.834a0.839,0.839,0,0,0-.464-0.323l-1.226-.931a1.224,1.224,0,0,0-.514-0.45l-1.219-1.187L14.1,44.363l-0.928-1.11L12.7,42.617l-0.814-1.24-0.417-.7L10.8,39.337a1.173,1.173,0,0,0-.288-0.634A21.551,21.551,0,0,1,9.08,30.532a22.855,22.855,0,0,1,1.263-6.406l0.608-1.412a21.141,21.141,0,0,1,5.763-7.072A30.217,30.217,0,0,1,20.4,13.335l1.36-.544,3.18-.927,1.037-.163,2.414-.2,0.95,0.011,2.017,0.157,0.8,0.1,1.887,0.424a0.974,0.974,0,0,0,.628.18L36.4,13a0.458,0.458,0,0,0,.394.182l1.624,0.835L38.9,14.278l1.418,0.937,0.453,0.349,1.091,0.892,0.661,0.618,0.918,0.946,0.411,0.485,1.143,1.488a0.23,0.23,0,0,0,.166.222l0.951,1.568a1.218,1.218,0,0,0,.33.636l0.739,1.69,0.12,0.353,0.558,1.7a0.87,0.87,0,0,0,.158.627l0.334,2.038a1.637,1.637,0,0,0,.088.8q0.028,1.09.056,2.18-0.016.391-.032,0.782l-0.426,2.824ZM29.494,13.973l-0.788-.015a9.627,9.627,0,0,0-2.687.239,1.89,1.89,0,0,0-.92.178,10.965,10.965,0,0,0-3.455,1.144,6.116,6.116,0,0,0-1.6.783,16.57,16.57,0,0,0-6.9,7.656,11.141,11.141,0,0,0-1.221,3.617,1.692,1.692,0,0,0-.164.941A13.629,13.629,0,0,0,11.763,34a0.824,0.824,0,0,0,.129.633,6.991,6.991,0,0,0,.585,2.192,0.728,0.728,0,0,0,.2.509,5.515,5.515,0,0,0,.75,1.694,0.378,0.378,0,0,0,.17.32,5.009,5.009,0,0,0,.838,1.4,0.877,0.877,0,0,0,.332.472,12.114,12.114,0,0,0,2.781,3.022,0.97,0.97,0,0,0,.49.416,5.213,5.213,0,0,0,1.4.994,0.231,0.231,0,0,0,.233.154,5.8,5.8,0,0,0,1.662.907,1.11,1.11,0,0,0,.63.3,5.521,5.521,0,0,0,1.726.627,0.917,0.917,0,0,0,.627.179,6.774,6.774,0,0,0,1.883.419l0.783,0.076a7.335,7.335,0,0,0,2.2.1l0.909-.029a10.466,10.466,0,0,0,2.7-.442,16.565,16.565,0,0,0,9.442-5.957,15.169,15.169,0,0,0,3.273-6.72,8.808,8.808,0,0,0,.457-2.822,1.643,1.643,0,0,0,.019-0.785,8.932,8.932,0,0,0-.039-2.194,1.592,1.592,0,0,0-.13-0.786,5.984,5.984,0,0,0-.432-2.051l-0.122-.475a7.63,7.63,0,0,0-.8-2.073,0.556,0.556,0,0,0-.2-0.429,4.576,4.576,0,0,0-.773-1.409,0.765,0.765,0,0,0-.3-0.473,5.893,5.893,0,0,0-1.087-1.492,0.7,0.7,0,0,0-.345-0.395,12.066,12.066,0,0,0-2.737-2.534l-0.451-.318a5.312,5.312,0,0,0-1.49-.914,1.27,1.27,0,0,0-.644-0.344,5.647,5.647,0,0,0-1.75-.738,1.184,1.184,0,0,0-.6-0.237,7.047,7.047,0,0,0-1.74-.45,1.028,1.028,0,0,0-.642-0.1A7.278,7.278,0,0,0,29.494,13.973Zm46.75,28.51a5.6,5.6,0,0,1,.57,1.711l0.021,0.949a3.742,3.742,0,0,1-3.544,3.436,1.486,1.486,0,0,0-.783,0,13.18,13.18,0,0,0-2.356.006,1.472,1.472,0,0,0-.783-0.006,13.18,13.18,0,0,0-2.356.006,1.471,1.471,0,0,0-.783-0.006c-0.442-.013-0.885-0.051-1.325-0.034a2.757,2.757,0,0,0-2.723,2.676c-0.017.286-.007,0.573,0,0.86,0,0.55-.438.4-0.675,0.348-0.57-.123-1.514.459-1.673-0.328a5.161,5.161,0,0,1,4.142-5.889c0.753-.146,1.509-0.044,2.258-0.143l0.629,0,2.353,0,0.786,0,2.354,0c1.772,0.13,2.389-.53,1.895-2.028-0.387-.912-1.161-0.718-1.889-0.658a1.775,1.775,0,0,0-.954,0,8.144,8.144,0,0,0-2.343.04,0.984,0.984,0,0,0-.8-0.04c-1.775-.079-3.55-0.088-5.325,0a1.778,1.778,0,0,0-.955,0l-1.69-.1q-0.02-.478-0.039-0.957c0.094-1.36.094-1.36,1.5-1.424a0.572,0.572,0,0,0,.076-0.014l0.787,0,2.353,0,0.787,0,2.352,0,0.787,0,2.353,0,0.787,0,1.934,0.067,0.549,0.164a5.569,5.569,0,0,1,1.554,1.152ZM50.262,39.969a10.279,10.279,0,0,1,.3-2.673,4.686,4.686,0,0,1,1.851-1.861,10.277,10.277,0,0,1,2.671-.322,1.434,1.434,0,0,0,.783.006,12.813,12.813,0,0,0,2.357-.006,1.434,1.434,0,0,0,.783.006,12.812,12.812,0,0,0,2.357-.006,1.434,1.434,0,0,0,.783.006,12.813,12.813,0,0,0,2.357-.006,1.434,1.434,0,0,0,.783.006l2.338,0.029L67.71,35.42c-0.013.521-.057,1.044-0.028,1.562,0.026,0.462-.086.662-0.6,0.624-0.544-.041-1.095.011-1.643,0.022l-0.786,0-2.353,0-0.786,0-2.353,0-0.786,0-2.353,0-0.786,0c-0.467-.009-0.933-0.028-1.4-0.024a1.007,1.007,0,0,0-1.066.846,2.972,2.972,0,0,0,.08,1.749,0.66,0.66,0,0,0,.5.549,5.1,5.1,0,0,0,2.2.138l0.775,0.051,0.035,1.853c0.086,0.536-.3.552-0.658,0.589l-2.189-.039L52.76,43.17l-1.273-.7-0.472-.5-0.656-1.375A1.071,1.071,0,0,0,50.262,39.969ZM29.954,19.132q0.01,0.3.021,0.6,0,1.176,0,2.351,0,0.392,0,.785,0,1.176,0,2.351,0,0.392,0,.785,0,1.176,0,2.351,0,0.393,0,.785c0,0.765-.332,1.622.588,2.134l0.253,0.256,1.316,1.312,0.247,0.247,1.314,1.316,0.262,0.262,1.307,1.307,0.262,0.262a0.256,0.256,0,0,1,.036.068c0.172,0.925-.827,1.035-1.139,1.628-0.176.335-.421,0.288-0.661,0.049l-0.246-.245L32.2,36.422l-0.261-.261-1.308-1.308-0.261-.261L29.05,33.278l-0.245-.245L27.5,31.7l-0.046-.359a13.776,13.776,0,0,0,.006-2.353,1.547,1.547,0,0,0-.006-0.783,13.8,13.8,0,0,0,.006-2.353,1.547,1.547,0,0,0-.006-0.783,13.8,13.8,0,0,0,.006-2.353,1.547,1.547,0,0,0-.006-0.783,13.8,13.8,0,0,0,.006-2.353c-0.032-.452.27-0.539,0.625-0.569C28.7,19.152,29.341,18.942,29.954,19.132ZM18.171,40.491l0.483,0.273a1.289,1.289,0,0,1,.148,1.583,1.121,1.121,0,0,1-1.143.513,1.184,1.184,0,0,1-1.037-1.326A1.257,1.257,0,0,1,18.171,40.491Zm24.91-8.412-0.295-.458c-0.13-1.1.232-1.526,1.388-1.651l0.7,0.424a1.226,1.226,0,0,1-.155,1.694A1.213,1.213,0,0,1,43.081,32.078ZM29.17,45.164l0.473,0.3a1.217,1.217,0,0,1-.057,1.734,1.251,1.251,0,0,1-1.8-.08,0.278,0.278,0,0,0-.164-0.263C27.513,45.562,27.916,45.119,29.17,45.164ZM19.259,20.208l-0.16.927-0.461.429-0.876.1a2.1,2.1,0,0,1-1-.83c0.213-1.268.471-1.523,1.58-1.567A1.729,1.729,0,0,1,19.259,20.208Zm-6.25,9.881,0.758-.1a1.356,1.356,0,0,1,1.005.877l-0.088.923-0.432.461-0.929.157C12.17,31.762,12.069,31.018,13.009,30.089ZM27.6,16.443q0.02-.465.039-0.931l0.611-.607,0.775-.062a1.45,1.45,0,0,1,.959.971,2.447,2.447,0,0,1-.192.936l-0.3.305a2.384,2.384,0,0,1-.937.194A1.636,1.636,0,0,1,27.6,16.443ZM40,40.768c0.89,0.783.888,1.784-.005,2.217-0.622.3-1.136,0.1-1.692-.675C38.267,41.059,38.71,40.656,40,40.768ZM38.448,21.144l-0.189-.626a1.286,1.286,0,0,1,1.317-1.247,1.265,1.265,0,0,1,1.118,1.418,1.337,1.337,0,0,1-1,.989A1.5,1.5,0,0,1,38.448,21.144Z"/>
</svg>
