<svg xmlns="http://www.w3.org/2000/svg" xmlns:xlink="http://www.w3.org/1999/xlink" width="96" height="96" viewBox="0 0 96 96">
  <defs>
    <style>
      .cls-1 {
        filter: url(#filter);
      }

      .cls-2 {
        fill: #7f7f7f;
      }

      .cls-2, .cls-3 {
        fill-rule: evenodd;
      }

      .cls-3 {
        fill: #777;
      }
    </style>
    <filter id="filter" filterUnits="userSpaceOnUse">
      <feFlood result="flood" flood-color="#fff"/>
      <feComposite result="composite" operator="in" in2="SourceGraphic"/>
      <feBlend result="blend" in2="SourceGraphic"/>
    </filter>
  </defs>
  <g id="usericon" class="cls-1">
    <path class="cls-2" d="M1.693,47.858A46.306,46.306,0,1,0,48,1.551,46.359,46.359,0,0,0,1.693,47.858Zm3.7,0A42.6,42.6,0,1,1,48,90.459,42.65,42.65,0,0,1,5.4,47.858Z"/>
    <path id="icn_user" class="cls-3" d="M72.6,73.423H67.777a9.648,9.648,0,0,1-9.647-9.648v-3.1a24.392,24.392,0,0,0,4.616-8.708A2.621,2.621,0,0,1,63.7,50.8a5.964,5.964,0,0,0,.824-7.181,2.078,2.078,0,0,1-.509-1.046c0-2.829.014-5.662,0-8.489A14.159,14.159,0,0,0,60.57,24.6a13.462,13.462,0,0,0-7.32-3.778,24.3,24.3,0,0,0-10.5.245,12.717,12.717,0,0,0-7.481,5.064,14.627,14.627,0,0,0-2.308,7.641c-0.042,2.878-.01,5.764-0.019,8.649a2.821,2.821,0,0,1-.645,1.446,5.979,5.979,0,0,0,1.366,7.313,2.829,2.829,0,0,1,.824,1.614,23.327,23.327,0,0,0,4.348,7.782v3.2a9.648,9.648,0,0,1-9.648,9.647H24.363S15.62,75.835,9.892,87.895v4.824a4.821,4.821,0,0,0,4.824,4.824H82.248a4.821,4.821,0,0,0,4.824-4.824V87.895C81.344,75.835,72.6,73.423,72.6,73.423ZM5.4,48.822A42.6,42.6,0,1,1,48,91.424,42.65,42.65,0,0,1,5.4,48.822Z"/>
  </g>
</svg>
