<svg xmlns="http://www.w3.org/2000/svg" width="96" height="96" viewBox="0 0 96 96">
  <defs>
    <style>
      .cls-1 {
        fill: #666364;
        fill-rule: evenodd;
      }
    </style>
  </defs>
  <path id="Forma_1_copy_2" data-name="Forma 1 copy 2" class="cls-1" d="M81.23,29.747L75.6,35.375,59.928,19.7l5.627-5.629c1.773-1.774,4.439-1.993,5.942-.49L81.72,23.8C83.223,25.307,83,27.973,81.23,29.747ZM57.315,22.308L72.991,37.989,35.612,75.379A2.981,2.981,0,0,1,34.3,76.2a1.93,1.93,0,0,1-.234.092L14.553,82.509a1.343,1.343,0,0,1-1.747-1.746l6.217-19.511a1.99,1.99,0,0,1,.094-0.234,2.958,2.958,0,0,1,.819-1.317M30.79,74.174l-9.65-9.651-2.589,8.129,4.113,4.115ZM56.713,28.541a1.416,1.416,0,0,0-2.008,0L25.563,57.689A1.421,1.421,0,1,0,27.573,59.7l29.14-29.148A1.42,1.42,0,0,0,56.713,28.541Z"/>
</svg>
