<svg xmlns="http://www.w3.org/2000/svg" width="96" height="96" viewBox="0 0 96 96">
  <defs>
    <style>
      .cls-1 {
        fill: #44b494;
        fill-rule: evenodd;
      }
    </style>
  </defs>
  <path class="cls-1" d="M47.516,83.089q-12.686,0-25.373,0a7.858,7.858,0,0,1-8.155-8.166c-0.006-15.955.042-31.91-.035-47.865a8.173,8.173,0,0,1,5.336-8.123,9.841,9.841,0,0,1,3.266-.444c2.643,0,5.286-.026,7.929.025,0.721,0.014.885-.206,0.846-0.88-0.059-1-.027-2.015-0.012-3.022a3.428,3.428,0,1,1,6.856-.053c0.031,1.127.025,2.256-.007,3.383-0.013.448,0.125,0.563,0.566,0.562q9.731-.02,19.462,0c0.444,0,.58-0.12.567-0.564-0.03-1.079-.02-2.159-0.007-3.239a3.431,3.431,0,1,1,6.851.057c0,1.008.031,2.017-.011,3.023-0.023.546,0.112,0.735,0.7,0.726,2.258-.034,4.517-0.03,6.775-0.007a7.893,7.893,0,0,1,7.9,5.993,8.615,8.615,0,0,1,.235,2.137q0,24.148,0,48.3a7.877,7.877,0,0,1-8.169,8.163Q60.274,83.094,47.516,83.089Zm0.078-40.956v0q-14.418,0-28.836-.008c-0.5,0-.7.08-0.7,0.66q0.032,16.017.018,32.035c0,2.67,1.531,4.175,4.21,4.172q6.092-.007,12.183,0l38.568,0a4.154,4.154,0,0,0,1.826-.333,3.859,3.859,0,0,0,2.253-3.845q-0.012-15.837,0-31.675c0-1.007,0-1.01-1.044-1.011H47.594Zm0-4.606v0h8.218q10.345,0,20.69.007c0.366,0,.629.011,0.626-0.508-0.022-3.551.02-7.1-.026-10.654a3.685,3.685,0,0,0-3.883-3.755c-2.331-.011-4.662.011-6.992-0.019-0.508-.007-0.638.128-0.631,0.632,0.03,2.207.027,4.415,0.011,6.623a3.426,3.426,0,1,1-6.848-.166q-0.032-3.239,0-6.479a0.485,0.485,0,0,0-.595-0.607q-9.7.025-19.392,0c-0.463,0-.608.113-0.6,0.591,0.024,2.183.029,4.368,0,6.551a3.432,3.432,0,1,1-6.856-.1c0-2.136-.015-4.271.014-6.407,0.007-.494-0.108-0.644-0.625-0.639-2.835.027-5.671,0.01-8.506,0.014a3.767,3.767,0,0,0-4.122,4.108c-0.007,3.335.019,6.671-.018,10.006-0.008.679,0.2,0.819,0.845,0.818Q33.245,37.511,47.591,37.527ZM36.415,63.555A11.177,11.177,0,1,1,47.617,74.7,11.138,11.138,0,0,1,36.415,63.555ZM47.573,72.59A9.073,9.073,0,1,0,38.507,63.6,9.079,9.079,0,0,0,47.573,72.59ZM36.787,54.734a1.6,1.6,0,0,1,.584-1.117c0.733-.651,1.456-1.316,2.2-1.949a1.842,1.842,0,0,1,2.927.709c0.112,0.254-.055.288-0.2,0.359a12.475,12.475,0,0,0-4.294,3.514c-0.108.138-.213,0.273-0.4,0.082A2.2,2.2,0,0,1,36.787,54.734Zm17.9-3.558a1.792,1.792,0,0,1,.9.463c0.731,0.653,1.479,1.288,2.194,1.957a1.677,1.677,0,0,1-.188,2.717c-0.249.188-.338,0.044-0.451-0.106A11.831,11.831,0,0,0,52.9,52.755c-0.3-.151-0.332-0.277-0.1-0.52A2.306,2.306,0,0,1,54.692,51.176ZM62.3,55.613a1.211,1.211,0,0,1,0,.144c-0.036.307,0.152,0.785-.344,0.8s-0.375-.461-0.383-0.772a8.05,8.05,0,0,0-7.549-7.9c-0.359-.026-1.008.189-0.994-0.377,0.016-.626.675-0.387,1.053-0.365A8.775,8.775,0,0,1,62.3,55.613Zm-29.416-.046a8.806,8.806,0,0,1,8.553-8.441,0.826,0.826,0,0,1,.62.114,0.321,0.321,0,0,1,.117.381,0.5,0.5,0,0,1-.55.245,7.833,7.833,0,0,0-3.983,1.075,8.022,8.022,0,0,0-4.025,6.816c-0.007.12,0,.24,0,0.36a0.379,0.379,0,0,1-.352.454,0.366,0.366,0,0,1-.375-0.428C32.881,55.951,32.883,55.759,32.883,55.567Zm8.374-6.339a0.987,0.987,0,0,1,.144,0c0.3,0.042.78-.15,0.768,0.373-0.009.426-.432,0.352-0.738,0.36a5.73,5.73,0,0,0-4.045,1.763,6.118,6.118,0,0,0-1.736,4.142c-0.016.3,0.077,0.715-.39,0.693-0.382-.018-0.341-0.389-0.346-0.678A6.724,6.724,0,0,1,41.257,49.228Zm12.62,0a6.729,6.729,0,0,1,6.393,6.648c-0.006.286,0.036,0.658-.347,0.681-0.476.028-.378-0.393-0.391-0.686A6,6,0,0,0,53.9,49.959c-0.348-.014-0.913.152-0.875-0.423C53.057,49.021,53.6,49.31,53.878,49.229Zm-7.319,11.19c0-1.127-.01-2.255,0-3.382a1.038,1.038,0,1,1,2.06-.008c0.014,1.607.027,3.215,0,4.821-0.01.5,0.116,0.66,0.632,0.65,1.633-.032,3.266-0.007,4.9-0.013a1.037,1.037,0,0,1,1.033.641,0.983,0.983,0,0,1-.167,1.079,1.1,1.1,0,0,1-.906.356c-2.306,0-4.612-.014-6.918,0a0.552,0.552,0,0,1-.646-0.693c0.021-1.151.007-2.3,0.007-3.454h0Z"/>
</svg>
