<svg xmlns="http://www.w3.org/2000/svg" width="96" height="96" viewBox="0 0 96 96">
  <defs>
    <style>
      .cls-1 {
        fill: #25ae88;
        stroke: #44b494;
        stroke-width: 2px;
        fill-rule: evenodd;
      }
    </style>
  </defs>
  <path class="cls-1" d="M21,19.738q0-1.053,0-2.107l0.115-.847a6.274,6.274,0,0,1,4.414-4.608,0.267,0.267,0,0,0,.268-0.17H57.411a6.6,6.6,0,0,1,2.92,1.7,1.921,1.921,0,0,0,.579.579,4.035,4.035,0,0,0,.826.826,1.914,1.914,0,0,0,.579.579,4.03,4.03,0,0,0,.826.827,1.917,1.917,0,0,0,.579.58,4.035,4.035,0,0,0,.826.826,1.92,1.92,0,0,0,.579.579,4.035,4.035,0,0,0,.826.826,1.918,1.918,0,0,0,.579.58,4.037,4.037,0,0,0,.826.826,1.919,1.919,0,0,0,.579.58,4.035,4.035,0,0,0,.826.826,1.918,1.918,0,0,0,.579.58,4.037,4.037,0,0,0,.826.826,1.918,1.918,0,0,0,.579.58,4.036,4.036,0,0,0,.826.826,1.918,1.918,0,0,0,.579.58,4.035,4.035,0,0,0,.826.826,1.924,1.924,0,0,0,.579.58l0.739,0.953,0.245,0.427L74.992,30q0,0.353,0,.705,0,1.053,0,2.107,0,0.353,0,.705,0,1.053,0,2.107,0,0.353,0,.705,0,1.053,0,2.106,0,0.353,0,.705,0,1.053,0,2.107,0,0.353,0,.705,0,1.053,0,2.107,0,0.353,0,.705,0,1.053,0,2.106,0,0.353,0,.706,0,1.053,0,2.106,0,0.353,0,.706,0,1.053,0,2.107,0,0.353,0,.705,0,1.053,0,2.107,0,0.353,0,.705,0,1.053,0,2.106,0,0.353,0,.705,0,1.053,0,2.107,0,0.353,0,.705,0,1.053,0,2.107,0,0.353,0,.705,0,1.053,0,2.107,0,0.353,0,.705,0,1.053,0,2.106,0,0.353,0,.705,0,1.053,0,2.107,0,0.353,0,.705,0,1.053,0,2.107,0,0.353,0,.705,0,1.053,0,2.106,0,0.353,0,.705a6.231,6.231,0,0,1-4.328,5.254,1.119,1.119,0,0,0-.749.228H25.806a2.809,2.809,0,0,0-1.062-.439,7.28,7.28,0,0,1-2.727-2.233,0.75,0.75,0,0,0-.273-0.424l-0.6-1.542a1.007,1.007,0,0,0-.124-0.564q-0.008-1.054-.017-2.108l0-.705,0-2.107,0-.705,0-2.106,0-.706,0-2.106,0-.705,0-2.107,0-.706,0-2.107,0-.705,0-2.106,0-.705,0-2.107,0-.705,0-2.107,0-.705,0-2.106,0-.706,0-2.107,0-.705,0-2.107,0-.705,0-2.107,0-.705,0-2.107,0-.705,0-2.107,0-.705,0-2.107,0-.705,0-2.107,0-.705,0-2.107,0-.705,0-2.107,0-.705,0-2.107,0-.705,0-2.107ZM69.429,81.714a3.317,3.317,0,0,0,3.263-3.266q0-.391.005-0.782l0-2.107,0-.705,0-2.106,0-.705,0-2.107,0-.705,0-2.107,0-.705,0-2.106,0-.705,0-2.107,0-.705,0-2.107,0-.705,0-2.107,0-.705,0-2.106,0-.705,0-2.107,0-.705,0-2.107,0-.705,0-2.106,0-.706,0-2.106,0-.705L72.7,39l0-.706,0-2.107,0-.705,0-2.106,0-.706,0-2.107a1.417,1.417,0,0,0-.044-0.727,1.769,1.769,0,0,0-.748-1.255A1.91,1.91,0,0,0,71.33,28a4.038,4.038,0,0,0-.825-0.826,1.921,1.921,0,0,0-.579-0.58,4.035,4.035,0,0,0-.826-0.826,1.922,1.922,0,0,0-.579-0.58,4.043,4.043,0,0,0-.826-0.826,1.92,1.92,0,0,0-.579-0.58,4.036,4.036,0,0,0-.825-0.826,1.921,1.921,0,0,0-.579-0.58,4.037,4.037,0,0,0-.826-0.826,1.919,1.919,0,0,0-.579-0.58,4.034,4.034,0,0,0-.826-0.826,1.92,1.92,0,0,0-.579-0.58,4.039,4.039,0,0,0-.826-0.826,1.917,1.917,0,0,0-.579-0.579,4.035,4.035,0,0,0-.826-0.826,1.922,1.922,0,0,0-.579-0.58,4.034,4.034,0,0,0-.826-0.826,1.92,1.92,0,0,0-.579-0.58,2.175,2.175,0,0,0-.978-0.822,1.178,1.178,0,0,0-.862-0.247H54.884l-0.7,0-2.1,0-0.7,0-2.1,0-0.7,0-2.1,0-0.7,0-2.1,0-0.7,0-2.1,0-0.7,0-2.1,0-0.7,0-2.1,0-0.7,0-2.1,0-0.7,0-2.1,0-0.7,0-2.1,0a3.339,3.339,0,0,0-3.487,3.49l0,2.106q0,0.353,0,.705,0,1.053,0,2.107,0,0.353,0,.705,0,1.053,0,2.106,0,0.353,0,.706,0,1.053,0,2.107,0,0.353,0,.705,0,1.053,0,2.107,0,0.353,0,.705,0,1.053,0,2.106,0,0.353,0,.706,0,1.053,0,2.106,0,0.353,0,.705,0,1.053,0,2.107,0,0.353,0,.705,0,1.053,0,2.107,0,0.353,0,.706,0,1.053,0,2.106,0,0.353,0,.705,0,1.053,0,2.107,0,0.353,0,.705,0,1.053,0,2.107,0,0.353,0,.705,0,1.053,0,2.107,0,0.353,0,.706,0,1.053,0,2.107,0,0.353,0,.705,0,1.053,0,2.107,0,0.353,0,.705,0,1.053,0,2.107,0,0.353,0,.706,0,1.053,0,2.106,0,0.353,0,.705,0,1.053,0,2.107,0,0.353,0,.705,0,1.053,0,2.107,0,0.353,0,.705,0,1.053,0,2.107,0,0.353,0,.705,0,1.053,0,2.106,0,0.353,0,.706a6.476,6.476,0,0,0,.1,2.115,0.676,0.676,0,0,0,.152.557,2.122,2.122,0,0,0,.819,1.277,0.567,0.567,0,0,0,.366.3,2.884,2.884,0,0,0,1.768.629l0.706,0.016,2.1,0,0.7,0,2.1,0,0.7,0,2.1,0,0.7,0,2.1,0,0.7,0,2.1,0,0.7,0,2.1,0,0.7,0,2.1,0,0.7,0,2.1,0,0.7,0,2.1,0,0.7,0,2.1,0,0.7,0,2.1,0,0.7,0,2.1,0,0.7,0,2.1,0,0.7,0,2.1,0,0.7,0,2.1,0Zm-42.8-35.962q0-.353,0-0.705,0-1.054,0-2.107,0-.353,0-0.705c0-1.946.188-2.129,2.131-2.133l0.7,0,2.1,0,0.7,0a4.779,4.779,0,0,1,1.809.209l0.252,0.252a4.8,4.8,0,0,1,.208,1.809q0,0.353,0,.706,0,1.053,0,2.106,0,0.353,0,.705c0,1.944-.188,2.129-2.131,2.133l-0.7,0-2.1,0-0.7,0a4.742,4.742,0,0,1-1.809-.21l-0.25-.249A4.776,4.776,0,0,1,26.627,45.752Zm2.832-.023c0.795,0.006,1.59,0,2.384.026a0.34,0.34,0,0,0,.428-0.429c-0.029-.795-0.02-1.591-0.026-2.387q0.183-.725-0.541-0.542c-0.795-.006-1.59,0-2.384-0.026a0.34,0.34,0,0,0-.428.429c0.029,0.795.02,1.591,0.026,2.386Q28.735,45.911,29.459,45.728ZM68.648,31.1l0.7,0.043,0.029,1.668a0.459,0.459,0,0,1-.585.585l-2.1,0-0.7,0-2.1,0-0.7,0-2.1,0-0.7,0-2.1,0-0.7,0-2.1,0-0.7,0a1.358,1.358,0,0,1-1.086-.741l-0.062-.547q0-1.053,0-2.107,0-.353,0-0.705,0-1.053,0-2.107,0-.353,0-0.705,0-1.053,0-2.107,0-.353,0-0.705,0-1.053,0-2.107,0-.353,0-0.705,0-1.053,0-2.107,0-.353,0-0.705a0.359,0.359,0,0,1,.445-0.445l0.7,0a2.514,2.514,0,0,0,.539.015c0.477-.088.648,0.117,0.605,0.568l0,0.705,0,2.107,0,0.705,0,2.107,0,0.705,0,2.107,0,0.705,0,2.107,0,0.705a3.477,3.477,0,0,1-.028.408c-0.09.493,0.123,0.642,0.592,0.581A9.152,9.152,0,0,1,57.41,31.1l0.7,0,2.1,0,0.7,0,2.1,0,0.7,0,2.1,0,0.7,0Zm-31.465-13.5,0.7,0.043,0.029,1.669a0.459,0.459,0,0,1-.585.585l-1.667-.029-0.043-.7a2.743,2.743,0,0,1,.131-1.439A2.734,2.734,0,0,1,37.183,17.605Zm-5.619,0,0.7,0a2.513,2.513,0,0,0,.539.015c0.477-.088.648,0.117,0.605,0.568l0,0.705c-0.056.952-.056,0.952-1.007,1.008l-0.7,0c-0.45.043-.655-0.129-0.567-0.606a2.519,2.519,0,0,0-.015-0.54q0-.353,0-0.705A0.359,0.359,0,0,1,31.564,17.605ZM69.373,66.558q0,0.353,0,.705,0,1.053,0,2.107,0,0.353,0,.705a6.693,6.693,0,0,1-.218,2.231l-0.216.212c-0.714.432-1.511,0.123-2.258,0.253l-0.7,0-2.1,0-0.7,0-2.1,0-0.7,0-2.1,0-0.7,0-2.1,0-0.7,0-2.1,0-0.7,0-2.1,0-0.7,0-2.1,0-0.7,0-2.1,0-0.7,0-2.1,0-0.7,0a2.179,2.179,0,0,1-1.372-.316l-0.277-.419q-0.029-1.049-.057-2.1,0-.353,0-0.705,0-1.053,0-2.107,0-.352,0-0.705c0.079-1.256.314-1.492,1.569-1.571l0.7,0,2.1,0,0.7,0,2.1,0,0.7,0,2.1,0,0.7,0,2.1,0,0.7,0,2.1,0,0.7,0,2.1,0,0.7,0,2.1,0,0.7,0,2.1,0,0.7,0,2.1,0,0.7,0,2.1,0.057,0.419,0.277A2.184,2.184,0,0,1,69.373,66.558ZM43.5,67.143c-0.721,0-1.694-.275-2.1.086-0.463.414-.123,1.4-0.128,2.141l0,0.705c-0.1.334,0.032,0.443,0.37,0.426,0.569-.029,1.14-0.022,1.711-0.03l0.7,0,2.1,0,0.7,0,2.1,0,0.7,0,2.1,0,0.7,0,2.1,0,0.7,0,2.1,0,0.7,0,2.1,0,0.7,0,2.1,0,0.7,0,2.1,0c1.318,0.077,1.318.077,1.24-1.242,0.008-.571,0-1.142.03-1.712,0.017-.339-0.092-0.467-0.425-0.37l-0.7,0-2.1,0-0.7,0-2.1,0-0.7,0-2.1,0-0.7,0-2.1,0-0.7,0-2.1,0-0.7,0-2.1,0-0.7,0-2.1,0-0.7,0-2.1,0Zm-16.877,1.1q0-.352,0-0.705a6.734,6.734,0,0,1,.218-2.231l0.246-.246a6.705,6.705,0,0,1,2.229-.218l0.7,0,2.1,0,0.7,0a2.178,2.178,0,0,1,1.373.316l0.276,0.419q0.029,1.049.057,2.1,0,0.353,0,.705,0,1.053,0,2.107,0,0.353,0,.705c-0.079,1.256-.315,1.492-1.569,1.571l-0.7,0-2.1,0-0.7,0-2.1-.057-0.419-.277a2.183,2.183,0,0,1-.316-1.374q0-.353,0-0.705Q26.625,69.3,26.627,68.247Zm5.619,0q0-.353,0-0.705c0.1-.334-0.032-0.443-0.37-0.426-0.569.029-1.14,0.022-1.71,0.03-1.318-.077-1.318-0.077-1.241,1.242-0.008.571,0,1.142-.03,1.712-0.017.339,0.092,0.467,0.425,0.371l0.7,0c0.721,0,1.694.274,2.1-.086C32.581,69.974,32.241,68.986,32.245,68.248ZM69.373,44.062q0,0.353,0,.705,0,1.053,0,2.107a1.211,1.211,0,0,1-1.147,1.148l-2.1,0-0.7,0-2.1,0-0.7,0-2.1,0-0.7,0-2.1,0-0.7,0-2.1,0-0.7,0-2.1,0-0.7,0-2.1,0-0.7,0-2.1,0-0.7,0-2.1,0-0.7,0-2.1,0-0.7,0a1.358,1.358,0,0,1-1.086-.741l-0.062-.548q0-1.053,0-2.107,0-.353,0-0.705,0-1.053,0-2.106,0-.353,0-0.705a1.324,1.324,0,0,1,1-1h0.7l2.1,0,0.7,0,2.1,0,0.7,0,2.1,0,0.7,0,2.1,0,0.7,0,2.1,0,0.7,0,2.1,0,0.7,0,2.1,0,0.7,0,2.1,0,0.7,0,2.1,0,0.7,0,2.1,0,0.549,0.063a1.356,1.356,0,0,1,.739,1.086l0,0.705Q69.375,43.009,69.373,44.062ZM42.942,42.4c-1.746-.084-1.746-0.084-1.663,1.664l0,0.705c-0.058.984-.058,0.985,0.905,0.982,0.2,0,.409-0.016.613-0.024l0.7,0,2.1,0,0.7,0,2.1,0,0.7,0,2.1,0,0.7,0,2.1,0,0.7,0,2.1,0,0.7,0,2.1,0,0.7,0,2.1,0,0.7,0c1.17,0.007,2.34,0,3.51.029a0.343,0.343,0,0,0,.429-0.431c-0.025-.679-0.007-1.359-0.007-2.038,0-.942,0-0.942-0.982-0.886l-0.7,0-2.1,0-0.7,0-2.1,0-0.7,0-2.1,0-0.7,0-2.1,0-0.7,0-2.1,0-0.7,0-2.1,0-0.7,0-2.1,0-0.7,0-2.1,0ZM69.373,55.31q0,0.353,0,.705,0,1.053,0,2.107,0,0.353,0,.705c-0.079,1.256-.315,1.492-1.569,1.57l-0.7,0-2.1,0-0.7,0-2.1,0-0.7,0-2.1,0-0.7,0-2.1,0-0.7,0-2.1,0-0.7,0-2.1,0-0.7,0-2.1,0-0.7,0-2.1,0-0.7,0-2.1,0-0.7,0-2.1-.057L39.3,60.061a2.183,2.183,0,0,1-.316-1.374q0-.353,0-0.705,0-1.053,0-2.107,0-.352,0-0.705c0.126-.745-0.17-1.535.241-2.25l0.222-.227a6.665,6.665,0,0,1,2.23-.219l0.7,0,2.1,0,0.7,0,2.1,0,0.7,0,2.1,0,0.7,0,2.1,0,0.7,0,2.1,0,0.7,0,2.1,0,0.7,0,2.1,0,0.7,0,2.1,0,0.7,0,2.1,0,0.7,0a2.179,2.179,0,0,1,1.372.316l0.277,0.419Q69.344,54.261,69.373,55.31Zm-2.291.565,0-.705c0.1-.334-0.032-0.443-0.37-0.426-0.569.029-1.14,0.022-1.711,0.03l-0.7,0-2.1,0-0.7,0-2.1,0-0.7,0-2.1,0-0.7,0-2.1,0-0.7,0-2.1,0-0.7,0-2.1,0-0.7,0-2.1,0-0.7,0-2.1,0c-1.318-.077-1.318-0.077-1.24,1.242-0.008.571,0,1.142-.03,1.712-0.017.339,0.092,0.467,0.425,0.37l0.7,0,2.1,0,0.7,0,2.1,0,0.7,0,2.1,0,0.7,0,2.1,0,0.7,0,2.1,0,0.7,0,2.1,0,0.7,0,2.1,0,0.7,0,2.1,0,0.7,0c0.721,0,1.694.274,2.1-.086C67.418,57.6,67.077,56.613,67.082,55.875Zm-40.4,3.78-0.063-.549q0-1.053,0-2.107,0-.352,0-0.705,0-1.053,0-2.107,0-.353,0-0.705a1.324,1.324,0,0,1,1-1h0.7l2.1,0,0.7,0,2.1,0L33.8,52.535a1.36,1.36,0,0,1,.741,1.087q0,0.353,0,.706,0,1.053,0,2.107,0,0.353,0,.705,0,1.054,0,2.107a1.211,1.211,0,0,1-1.147,1.148l-2.1,0-0.7,0-2.1,0-0.7,0A1.356,1.356,0,0,1,26.686,59.655Zm3.894-4.884c-1.746-.084-1.746-0.084-1.663,1.664q0,0.353,0,.705c-0.056.982-.056,0.982,0.871,0.983,0.7,0,1.394-.014,2.09.007a0.313,0.313,0,0,0,.391-0.392c-0.019-.883-0.017-1.767,0-2.65,0.005-.284-0.1-0.37-0.363-0.342-0.207.022-.416,0.019-0.625,0.028ZM28.754,17.605l0.166,0.167q-0.018,1.049-.036,2.1l-2.1.036-0.166-.167q0.018-1.049.036-2.1Z"/>
</svg>
