<svg xmlns="http://www.w3.org/2000/svg" width="124" height="124" viewBox="0 0 124 124">
  <defs>
    <style>
      .cls-1 {
        fill: #666364;
        fill-rule: evenodd;
      }
    </style>
  </defs>
  <path class="cls-1" d="M6.51,110.209V23.535c0.522-.188.372-0.674,0.486-1.057,1.592-5.338,4.729-9.114,10.415-10.293a16.9,16.9,0,0,0,2.747.052c2.082-.288,4.305.8,6.261-0.646l0.385-.409c1.235-2.681.848-5.41,0.241-8.146l0.438-1.041h2.046q0,0.256,0,.512c-0.544.855,0.333,0.807,0.689,1.09,0.632,2.626-.053,5.315.38,7.951,0.613,1.065,1.655.7,2.534,0.7q28.365,0.028,56.73,0c0.879,0,1.921.366,2.534-.7q0.181-3.971.362-7.942c0.376-.275,1.237-0.237.707-1.1q0-.256,0-0.512h2.046l0.438,1.041c-0.591,2.8-1.05,5.589.3,8.315l0.159,0.174c2.226,1.245,4.5.974,6.779,0.193a12.591,12.591,0,0,1,8.119,3.222,17.384,17.384,0,0,1,5.175,8.595v86.674c-0.566,1.35-1.043,2.745-1.715,4.039-2.335,4.5-6.3,6.727-11.073,7.757H17.764c-1.087-1.128-2.681-1.216-3.98-1.947C9.855,117.848,7.971,114.206,6.51,110.209Zm3.614-85.127a13.91,13.91,0,0,0,.04,8.691c0.843,0.073,1.686.208,2.53,0.209q48.805,0.016,97.61,0c0.843,0,1.687-.136,2.53-0.209a13.913,13.913,0,0,0,.04-8.691c-1.717-7.64-6.695-10.4-13.229-9.833-1.775.155-3.569,0.112-5.355,0.11q-36.24-.038-72.48-0.079a11.81,11.81,0,0,0-4.029.43C13.3,17.278,11.053,20.625,10.125,25.082Zm1.1,12.6c-0.2-.361-0.4-0.5-0.565.025l-0.478.214c-0.957.686-.6,1.71-0.6,2.6q-0.028,33.029,0,66.059c0,0.884-.356,1.918.649,2.571a11.934,11.934,0,0,0,9.1,9.146c0.665,0.988,1.692.635,2.576,0.635q39.592,0.027,79.184,0c0.884,0,1.911.353,2.576-.635a11.851,11.851,0,0,0,9.083-9.151c1.03-.638.668-1.676,0.669-2.558q0.028-33.034,0-66.066c0-.888.354-1.912-0.6-2.6-1.1-.035-2.209-0.1-3.314-0.1q-47.742-.009-95.484-0.011C13.088,37.808,12.157,37.725,11.226,37.68Zm8.106,80.613h84.336c-0.665.988-1.692,0.635-2.576,0.635q-39.592.027-79.184,0C21.024,118.928,20,119.281,19.332,118.293Zm93.419-9.151,0.066-71.222c0.957,0.686.6,1.71,0.6,2.6q0.028,33.033,0,66.066C113.419,107.466,113.781,108.5,112.751,109.142ZM10.183,37.92q0.023,35.614.046,71.227c-1.006-.653-0.649-1.687-0.649-2.571q-0.028-33.029,0-66.058C9.58,39.63,9.226,38.606,10.183,37.92ZM30.6,11.546H92.4c-0.613,1.065-1.654.7-2.534,0.7q-28.365.028-56.73,0C32.256,12.244,31.215,12.611,30.6,11.546Zm82.234,22.226q0.02-4.345.04-8.691A13.913,13.913,0,0,1,112.835,33.772Zm-102.71-8.69,0.04,8.691A13.91,13.91,0,0,1,10.125,25.082Zm7.287-12.9c2.938-1.192,6-.44,9.008-0.595-1.956,1.442-4.18.358-6.261,0.646A16.9,16.9,0,0,1,17.412,12.185ZM95.955,3.035c0.66,2.751.118,5.545,0.3,8.314C94.9,8.625,95.364,5.833,95.955,3.035ZM26.8,11.182c0.046-2.716-.378-5.447.241-8.146C27.653,5.771,28.04,8.5,26.8,11.182Zm69.611,0.344,6.779,0.193C100.911,12.5,98.642,12.77,96.416,11.525ZM29.532,2.506A0.992,0.992,0,0,1,30.221,3.6C29.865,3.313,28.988,3.361,29.532,2.506ZM92.761,3.6a1.01,1.01,0,0,1,.707-1.1C94,3.367,93.137,3.329,92.761,3.6ZM11.226,37.68l-0.565.025C10.827,37.181,11.022,37.32,11.226,37.68Z"/>
</svg>
