<svg xmlns="http://www.w3.org/2000/svg" xmlns:xlink="http://www.w3.org/1999/xlink" width="420" height="420" viewBox="0 0 420 420">
  <defs>
    <style>
      .cls-1 {
        filter: url(#filter);
      }

      .cls-2 {
        fill: #e33044;
      }

      .cls-2, .cls-3, .cls-5, .cls-6 {
        fill-rule: evenodd;
      }

      .cls-3, .cls-6, .cls-8 {
        fill: #25ae88;
      }

      .cls-3 {
        stroke: #666264;
        stroke-width: 1px;
      }

      .cls-4 {
        font-size: 50px;
        fill: #fff;
        text-anchor: middle;
        font-family: "Century Gothic";
        font-weight: 700;
      }

      .cls-5, .cls-7 {
        fill: #666364;
      }
    </style>
    <filter id="filter" filterUnits="userSpaceOnUse">
      <feGaussianBlur result="blur" stdDeviation="3.162" in="SourceAlpha"/>
      <feFlood result="flood" flood-opacity="0.4"/>
      <feComposite result="composite" operator="out" in2="blur"/>
      <feOffset result="offset" dy="10"/>
      <feComposite result="composite-2" operator="in" in2="SourceAlpha"/>
      <feBlend result="blend" mode="multiply" in2="SourceGraphic"/>
    </filter>
  </defs>
  <g id="DWM4" class="cls-1">
    <g>
      <path id="D" class="cls-2" d="M11.879,399.681H58.022q39.159,0,55.041-4.948t29.506-17.867q13.626-12.918,21.361-32.5a115.917,115.917,0,0,0,7.737-42.95q0-32.848-13.831-57.451t-35.189-35.528q-21.359-10.927-65.31-10.927H11.879V399.681ZM62.994,234.614q35.767,0,51.938,15.961,17.952,17.748,17.953,49.944,0,20.916-7.538,35.224t-19.391,20.363Q94.1,362.161,67.791,362.16H49.976V234.614H62.994Zm45.1-37.737,45.958,201.608,52.391-1L158.485,197.875Z"/>
      <path id="Forma_1_copy_3" data-name="Forma 1 copy 3" class="cls-3" d="M110.879,271.254L84.776,297.1,71.567,284.02a3.062,3.062,0,0,0-4.4,0,2.989,2.989,0,0,0,0,4.359l15.41,15.257a3.061,3.061,0,0,0,4.4,0l28.3-28.023a2.988,2.988,0,0,0,0-4.358A3.061,3.061,0,0,0,110.879,271.254Z"/>
      <text id="_12" data-name="12" class="cls-4" transform="translate(84.713 227.936) scale(0.543)"><tspan x="0">12</tspan></text>
      <text id="_6" data-name="6" class="cls-4" transform="translate(83.626 389.355) scale(0.543)"><tspan x="0">6</tspan></text>
      <text id="_9" data-name="9" class="cls-4" transform="translate(31.45 309.46) scale(0.543)"><tspan x="0">9</tspan></text>
      <path id="W" class="cls-5" d="M156.282,399.061h36.5l36.5-130.376,37.188,130.376H303.33L348.809,197.4h-37.8l-28.89,128.731L245.545,197.4H213.593L177.552,326.127,148.385,197.4h-37.8Zm75.624-206.186H356.219V409.469H231.906V192.875Z"/>
      <path id="M_copy_2" data-name="M copy 2" class="cls-6" d="M156.187,399.061H193.65L227.767,271.7l42.5,127.36h33.862L347.015,271.7l21.645,127.36h37.156L371.954,197.4H334.54L287.322,338.054,238.935,197.4H201.5Zm-4.136.423L378.842,189.89l31.97,212.588-307.716-1Z"/>
      <path id="M_copy" data-name="M copy" class="cls-5" d="M156.187,399.061H193.65L227.767,271.7l42.5,127.36h33.862L347.015,271.7l21.645,127.36h37.156L371.954,197.4H334.54L287.322,338.054,238.935,197.4H201.5Zm-4.136.423L378.842,189.89l31.97,212.588-307.716-1Z"/>
    </g>
    <path id="Shape_2_copy_3" data-name="Shape 2 copy 3" class="cls-5" d="M218.316,9.992c0.7,0.836,1.782.16,2.561,0.671-1.486.571-3.226,0.316-5.08,1.43a46.678,46.678,0,0,1,14.055,1.584c13.246,3.633,20.676,12.408,22.307,26.046,0.691,5.774.252,11.494-.242,17.23-0.054.633-.329,1.212,0.393,1.714,2.318,1.612,2.683,4.075,2.36,6.55-0.515,3.944-1.488,7.74-6.226,8.775-0.941.206-.868,1.053-1.089,1.677A102.129,102.129,0,0,1,241.7,88.948a11.836,11.836,0,0,1-2.193,3.19,43.171,43.171,0,0,1-21.978,11.737c-3.1.59-6.03-.182-8.9-1.206a46.869,46.869,0,0,1-13.8-7.928,19.978,19.978,0,0,1-5.731-7.457,124.3,124.3,0,0,1-4.662-11.828c-0.183-.553-0.129-1.312-1.017-1.471-4.489-.8-5.616-4.339-6.224-8.04-0.437-2.657-.257-5.347,2.2-7.26,0.82-.639.275-1.474,0.13-2.2a75.078,75.078,0,0,1-1.532-18.236,17.517,17.517,0,0,1,3.058-9.75c2.651-3.631,4.575-8.041,9.405-9.616a16.436,16.436,0,0,1,4.81-1.148,2.168,2.168,0,0,0,1.447-.285,36.751,36.751,0,0,1,15.969-7.458h5.633ZM236.929,137.45c0.458-5.879,1.634-11.659,2.418-17.492,0.564-4.195,1.246-8.374,1.917-12.84,7.857,4.162,15.524,8.12,23.09,12.26,9.032,4.94,18.045,9.929,26.319,16.106,2.68,2,5.017,4.3,6.1,7.583-1.168.088-2.48-.169-3.078,1.281a1.363,1.363,0,0,0-1.3.437l-0.43.431c-2.637,2.785-2.985,9.208-.629,11.758a0.8,0.8,0,0,0,.137-0.38c-1.3-3.486-1.492-6.923.361-10.305a3.1,3.1,0,0,0,.15-1.054l0.432-.428a1.352,1.352,0,0,0,1.3-.434l3.268-.962c3.485,6.694,5.253,13.972,6.952,21.228,1.8,7.691,3.106,15.5,4.738,23.229,0.328,1.553-.093,1.778-1.517,1.777q-91.377-.043-182.753.006c-1.486,0-1.772-.326-1.491-1.783,1.386-7.178,2.366-14.437,4.324-21.5,2.913-.4,5.92-0.454,8.47-2.223-2.747.718-5.444,1.627-8.342,1.388a19.836,19.836,0,0,1,1.349-5.614,6.734,6.734,0,0,0,5.477-4.385,12.6,12.6,0,0,0-.862-9.573,17.112,17.112,0,0,1,4.473-7.688,42.991,42.991,0,0,1,10.723-7.794c0.828,0.9,1.908.447,2.865,0.463a1.286,1.286,0,0,1,1.5,1.548q-0.037,15.763,0,31.529a1.261,1.261,0,0,1-1.514,1.525c-2.092-.055-4.186-0.022-6.28-0.025V134.061a0.654,0.654,0,0,0-.443.6q-0.011,14.643,0,29.285a1.777,1.777,0,0,0,.419,1.6c1.992,0.9,4.1.168,6.132,0.439,1.787,0.238,2.158-.566,2.147-2.2-0.064-9.906-.032-19.812-0.031-29.718,0-3.538,0-3.535-3.316-3.882a7.076,7.076,0,0,1-.842-0.185c8.352-5.513,17.207-10.155,26-14.9,4.867-2.624,9.8-5.129,14.988-7.838,0.654,4.312,1.306,8.391,1.884,12.48,0.835,5.9,1.985,11.75,2.515,17.69-3.909.135-3.52-.677-3.533,3.6-0.016,5.035-.027,10.069.007,15.1a10.017,10.017,0,0,0,1.623,5.671c2.179,3.259,5.627,3.641,9.037,4.169l12.336,17.117c0.584,0.81,1.168,1.619,1.885,2.615,2.869-4.074,5.622-7.988,8.38-11.9a88.943,88.943,0,0,1,5.9-8.221c3.759-4.214,3.66-9.465,4.558-14.48,0.479-2.674.561-5.414,1.347-8.037,1.33-.195,2.581.3,3.872,0.448a37,37,0,0,1,.676,5.528,17.657,17.657,0,0,0,.2-3.648c-0.026-.724.343-1.672-0.839-1.912-0.985-1.677-2.6-.479-3.878-0.849a12.727,12.727,0,0,1,.735-4.787,25.643,25.643,0,0,1,8.748,1.348,0.953,0.953,0,0,0,.869.428l0.195,0.089-0.174-.11a0.959,0.959,0,0,0-.86-0.442c-0.135-1.065-1.117-.974-1.781-1.2C241.6,137.2,239.249,137.482,236.929,137.45Zm41.2,6.034a0.952,0.952,0,0,0-.433-0.86,3.291,3.291,0,0,0-3.032-2.6c-0.779-1.717-2.506-1.742-3.974-2.118-3.4-.87-6.887-0.381-10.335-0.432-1.3-.019-1.844-0.4-1.756-1.739,0.086-1.29-.043-2.594.035-3.885s-0.362-1.855-1.718-1.768a25.09,25.09,0,0,1-4.112-.008c-1.854-.188-2.545.371-2.47,2.355,0.156,4.17.047,8.35,0.047,12.526,0,6.336-.011,12.672.016,19.008,0,0.716-.361,1.9.782,1.915,2.337,0.026,4.72.549,7.017-.339,0.9-1.022.094-2.322,0.555-3.458l0.733,0.644a1,1,0,0,0,.246-0.461,1.107,1.107,0,0,0-.757-0.943,0.658,0.658,0,0,0-.773.775c-0.026,1.139-.025,2.279-0.035,3.418-1.733,0-3.474-.1-5.2.045-1.742.144-2.2-.5-2.187-2.193,0.073-9.934.094-19.868-.012-29.8-0.022-2.064.521-2.712,2.629-2.646,4.73,0.146,4.827.039,4.735,4.767-0.038,1.9.669,2.279,2.382,2.227,4.825-.148,9.635-0.017,14.121,2.14,0.871,1.025,1.575,2.243,3.026,2.6a0.949,0.949,0,0,0,.438.855c0.06,0.186.119,0.372,0.179,0.558,0.054-.037.157-0.1,0.155-0.107C278.338,143.795,278.232,143.64,278.127,143.484ZM270.754,158.2a0.939,0.939,0,0,0,.438-0.862c1.777-1.027,1.472-2.99,1.553-4.454,0.129-2.308.478-4.893-1.555-6.8a1.244,1.244,0,0,0-1.3-1.294,5.017,5.017,0,0,0-1.76-1.166,49.619,49.619,0,0,0-8.793-.561c-1.175.074-1.16,0.817-1.159,1.641,0,3.089-.065,6.179.024,9.266,0.059,2.051-.983,4.933.457,5.954,1.831,1.3,4.764.646,7.133,0.274,1.349-.212,3.351.482,4.1-1.558A0.948,0.948,0,0,0,270.754,158.2Zm6.05,3-0.87.868-0.429.431a1.36,1.36,0,0,0-1.3.863c-3.73,1.652-7.57,2.569-11.673,1.72-0.083-.425-0.2-0.846-0.76-0.749a0.546,0.546,0,0,0-.329.386c0.181,0.51.673,0.329,1.052,0.4,1.743,1.527,3.909,1.024,5.747.709,2.077-.357,4.722.091,5.984-2.445,0.624,0,1.249-.009,1.3-0.869l0.434-.427a0.813,0.813,0,0,0,.871-0.862,0.945,0.945,0,0,0,.86-0.435c3.356-3.472,4.168-11.907,1.5-15.628a0.644,0.644,0,0,0-.058.79,16.617,16.617,0,0,1,.8,8.17c-0.409,2.387-1.775,4.347-2.266,6.643A0.948,0.948,0,0,0,276.8,161.2ZM139.027,141.761l-0.43-.431a0.923,0.923,0,0,0-1.181-.923,1.072,1.072,0,0,0,1.164.941l0.432,0.429c0,0.624,0,1.241.857,1.306,0.008,0.62.019,1.237,0.87,1.293a8.717,8.717,0,0,0,.237,1.685,15.9,15.9,0,0,1,.624,8.811c-0.28,1.246-.992,2.394-0.861,3.734-1.2.265-1.227,1.226-1.3,2.163-1.363.287-1.986,1.392-3.1,2.683a3.668,3.668,0,0,0,3.118-2.665,2.79,2.79,0,0,0,1.3-2.153,14.633,14.633,0,0,0,0-14.286,1.389,1.389,0,0,0-.863-1.3A1.368,1.368,0,0,0,139.027,141.761Zm46.364,0-0.462-.316-0.111.161,0.556,0.176c0,0.623,0,1.245.869,1.293a6.789,6.789,0,0,0,.748,2.643,16.256,16.256,0,0,1,1.152,7.393c-0.17,2.7-1.737,4.774-2.336,7.231a13.633,13.633,0,0,0-3.032,3.019c-6.512,3.176-13.182,2.717-19.914.865a1.577,1.577,0,0,0-1.725-.869,3.555,3.555,0,0,0-2.6-2.587,3.787,3.787,0,0,0-.705-2.221,11.238,11.238,0,0,1-1.5-6.164c0.089-2.643-.123-5.291,1.518-7.637a4.087,4.087,0,0,0,.259-1.668,1.854,1.854,0,0,0,1.731-1.732l0.431-.429c2.13-1.175,4.119-2.628,6.617-3.035a28.592,28.592,0,0,1,15.031,1.306,1.586,1.586,0,0,0,1.577,1.075c-0.085-1.17-.885-1.034-1.556-1.1-0.075-1.008-1-.916-1.6-1.167-3.444-1.431-7.083-.923-10.66-0.971a15.408,15.408,0,0,0-7.832,2.007,2.394,2.394,0,0,0-1.595,1.863l-0.43.429a1.855,1.855,0,0,0-1.736,1.728c-3.314,3.111-3.683,13.831.435,17.738a3.539,3.539,0,0,0,2.6,2.6,1.579,1.579,0,0,0,1.731.863c0.032,0.77.659,0.853,1.2,1.011a28.732,28.732,0,0,0,16.088.011c0.994-.277,2.3-0.533,2.671-1.885a3.106,3.106,0,0,0,3.031-3.027c2.256-1.457,2.464-3.93,2.791-6.178,0.572-3.938.52-7.862-2.362-11.124A1.347,1.347,0,0,0,185.391,141.76Zm99.234,1.751c0.533-.349,1.1-0.684.592-1.5a1.375,1.375,0,0,0-.619,1.469c-0.853.054-.859,0.675-0.869,1.293-2.686,4.246-2.111,8.6-.427,12.989a4.84,4.84,0,0,0,1.735,3.02,3.266,3.266,0,0,0,3.027,2.6,2.557,2.557,0,0,0,2.009,1.711,32.076,32.076,0,0,0,11.649,1.261,1.046,1.046,0,0,0,1.1-.869c-5.105.142-10.149,0.479-14.733-2.13-0.874-1.023-1.568-2.254-3.033-2.589-0.145-1.254-.334-2.484-1.731-3.026a26.794,26.794,0,0,1,.435-12.941A1.369,1.369,0,0,0,284.625,143.511ZM165.008,157.332c0.143,1.006.952,1.134,1.73,1.3,1.955,2.215,4.595,1.913,7.014,1.517,1.263-.207,3.2.513,3.843-1.522,0.926,0.034,1.654-.2,1.735-1.293,2.539-2.711,2.3-9.278-.432-12.119-3.087-3.37-6.982-2.09-10.683-1.8a4.334,4.334,0,0,0-2.6,1.417c-2.436,2.351-3.07,6.827-1.476,10.781A1.568,1.568,0,0,0,165.008,157.332Zm124.363-18.6a3.072,3.072,0,0,0-2.591,2.079c1.075-.415,2.15-0.83,2.611-2.054a4.1,4.1,0,0,0,3.312-1.336C291.149,137.824,290.129,137.89,289.371,138.734Zm-42.007,2.583-0.209-.082,0.17,0.12c0.007,2.081-.021,4.164.034,6.244a1.243,1.243,0,0,1-1.506,1.524c-1.2-.057-2.406-0.013-3.609-0.013a17.581,17.581,0,0,0,4.728.432c0.627,0,1.246-.138,1.2-0.894C248.023,146.192,248.863,143.623,247.364,141.317Zm48.968,18.517c2.232,0.809,3.9.69,5.249-.364C299.816,159.609,298.168,159.2,296.332,159.834Zm-0.866-.265a2.919,2.919,0,0,0-2.215-.787C293.907,159.645,294.394,160.058,295.466,159.569Zm-84.523-20.394c1.646-3.846.3-7.054-2.246-9.924-1.517-1.71-1.346-2.89.5-4.3a57.084,57.084,0,0,0,5.688-5.284c0.807-.816,1.26-0.747,2.031.026q3.2,3.209,6.563,6.252c0.828,0.746.912,1.368,0.183,2.112-4.123,4.212-4.285,8.929-2.009,14.085a22.655,22.655,0,0,1,.99,4.385,1.5,1.5,0,0,0-.423,1.372q0.033,8.917.068,17.834l-6.373,9.57L208.725,164.8l0.51-1.41,0.432-.423c1.554-.409.677,0.827,0.817,1.291,0.191,0.632-.177,1.672.868,1.65,2.324-.049,4.69.524,6.971-0.36a2,2,0,0,0,.423-1.8q0.012-12.035,0-24.068a2,2,0,0,0-.423-1.8c-1.967-.885-3.966-0.215-5.955.024H218.3V165.52a40.992,40.992,0,0,0-4.281.04c-1.99.215-2.981-.371-2.657-2.519a0.953,0.953,0,0,0-.7-1.331c-0.955-.142-1.009.539-1.043,1.213q-0.212.216-.425,0.431l-1.528.1-2.137-3.03a6.225,6.225,0,0,1,3.78-.481c1.579,0.126,2.13-.391,2.1-2.032-0.092-5.647-.031-11.3-0.041-16.946A1.922,1.922,0,0,0,210.943,139.175Zm-9.256,26.795c-3.41-.528-6.858-0.91-9.037-4.169a10.017,10.017,0,0,1-1.623-5.671c-0.034-5.035-.023-10.069-0.007-15.1,0.013-4.274-.376-3.462,3.533-3.6,1.235,5.089,1.634,10.314,2.529,15.458,0.393,2.259.7,4.535,0.979,6.812,0.176,1.45,1.119,2.445,1.882,3.563C200.548,164.149,201.107,165.066,201.687,165.97Zm9.256-26.795a1.922,1.922,0,0,1,.436,1.791c0.01,5.649-.051,11.3.041,16.946,0.027,1.641-.524,2.158-2.1,2.032a6.225,6.225,0,0,0-3.78.481,0.805,0.805,0,0,1-.218-0.971C207.183,152.692,208.7,145.832,210.943,139.175Zm11.34,26.558q-0.035-8.916-.068-17.834a1.5,1.5,0,0,1,.423-1.372c1.7,4.163,2.42,8.608,3.738,12.881a1.408,1.408,0,0,1-.4,1.356C224.756,162.429,223.515,164.078,222.283,165.733ZM133.332,145.96a12.6,12.6,0,0,1,.862,9.573,6.734,6.734,0,0,1-5.477,4.385A58.083,58.083,0,0,1,133.332,145.96ZM145.1,165.517c2.094,0,4.188-.029,6.28.026a1.261,1.261,0,0,0,1.514-1.525q-0.036-15.765,0-31.529a1.286,1.286,0,0,0-1.5-1.548c-0.957-.016-2.037.436-2.865-0.463a0.665,0.665,0,0,1,.636-0.484,7.076,7.076,0,0,0,.842.185c3.315,0.347,3.316.344,3.316,3.882,0,9.906-.033,19.812.031,29.718,0.011,1.635-.36,2.439-2.147,2.2-2.032-.271-4.14.457-6.132-0.439Zm-17.735.015c2.9,0.239,5.595-.67,8.342-1.388-2.55,1.769-5.557,1.825-8.47,2.223Q127.3,165.949,127.368,165.532ZM245.6,139.194a25.643,25.643,0,0,0-8.748-1.348,0.326,0.326,0,0,1,.074-0.4c2.32,0.032,4.672-.253,6.923.51,0.664,0.225,1.646.134,1.781,1.2Zm-5.638,4.32c-1.291-.145-2.542-0.643-3.872-0.448l0.027-.433c1.274,0.37,2.893-.828,3.878.849Zm53.733,0.834c0.6-1.45,1.91-1.193,3.078-1.281,0.071,0.114.141,0.229,0.211,0.344l-3.268.962Zm-86.024,19.107,1.528-.1,0.033,0.033-0.51,1.409Zm50.52,2.086c-2.3.888-4.68,0.365-7.017,0.339-1.143-.013-0.779-1.2-0.782-1.915-0.027-6.336-.016-12.672-0.016-19.008,0-4.176.109-8.356-.047-12.526-0.075-1.984.616-2.543,2.47-2.355a25.09,25.09,0,0,0,4.112.008c1.356-.087,1.8.482,1.718,1.768s0.051,2.595-.035,3.885c-0.088,1.335.456,1.72,1.756,1.739,3.448,0.051,6.934-.438,10.335.432,1.468,0.376,3.195.4,3.974,2.118,0,0-.026.029-0.026,0.029-4.486-2.157-9.3-2.288-14.121-2.14-1.713.052-2.42-.33-2.382-2.227,0.092-4.728,0-4.621-4.735-4.767-2.108-.066-2.651.582-2.629,2.646,0.106,9.933.085,19.867,0.012,29.8-0.012,1.692.445,2.337,2.187,2.193,1.721-.143,3.462-0.04,5.2-0.045Zm11.7-6.905c-0.753,2.039-2.755,1.345-4.1,1.557-2.369.372-5.3,1.025-7.133-.274-1.44-1.021-.4-3.9-0.457-5.954-0.089-3.087-.02-6.177-0.024-9.266,0-.824-0.016-1.567,1.159-1.641a49.619,49.619,0,0,1,8.793.561,5.017,5.017,0,0,1,1.76,1.166l-0.021.02a39.723,39.723,0,0,0-9.591-.9c-1.146.072-1.7,0.324-1.681,1.587q0.079,6.238,0,12.479c-0.018,1.309.607,1.551,1.724,1.528,3.207-.066,6.45.321,9.549-0.889Zm-105.76-3.024c-1.593-3.955-.959-8.431,1.477-10.782a4.334,4.334,0,0,1,2.6-1.417c3.7-.286,7.6-1.566,10.683,1.8l-0.028.025c-1.622-.055-2.778-1.306-4.368-1.588-5.533-.981-11.039,1.5-10.366,8.065,0.131,1.274.029,2.573,0.035,3.86Zm-1.275,8.613c6.732,1.852,13.4,2.311,19.914-.865l0.024,0.027c-0.368,1.352-1.677,1.608-2.671,1.885a28.732,28.732,0,0,1-16.088-.011c-0.541-.158-1.168-0.241-1.2-1.011Zm19.049-25.036a28.592,28.592,0,0,0-15.031-1.306c-2.5.407-4.487,1.86-6.617,3.035l-0.022-.022a2.394,2.394,0,0,1,1.595-1.863,15.408,15.408,0,0,1,7.832-2.007c3.577,0.048,7.216-.46,10.66.971,0.6,0.251,1.529.159,1.6,1.167Zm-36.836,26.352a1.777,1.777,0,0,1-.419-1.6q0-14.643,0-29.285a0.654,0.654,0,0,1,.443-0.6v31.457S145.074,165.541,145.074,165.541Zm13.435-4.75c-4.118-3.907-3.749-14.627-.435-17.738l0.026,0.026a4.087,4.087,0,0,1-.259,1.668c-1.641,2.346-1.429,4.994-1.518,7.637a11.238,11.238,0,0,0,1.5,6.164,3.787,3.787,0,0,1,.705,2.221Zm27.3-.451c0.6-2.456,2.166-4.527,2.336-7.23a16.256,16.256,0,0,0-1.152-7.393,6.789,6.789,0,0,1-.748-2.643l0.017-.016c2.881,3.262,2.933,7.186,2.361,11.124-0.327,2.248-.535,4.721-2.791,6.178Zm102.281,3.02c4.584,2.609,9.628,2.272,14.733,2.13a1.046,1.046,0,0,1-1.1.869,32.076,32.076,0,0,1-11.649-1.261,2.557,2.557,0,0,1-2.009-1.711Zm-10.422-2.593c0.491-2.3,1.857-4.256,2.266-6.643a16.617,16.617,0,0,0-.8-8.17,0.642,0.642,0,0,1,.059-0.79c2.664,3.721,1.852,12.156-1.5,15.628ZM178.9,145.217c2.737,2.841,2.971,9.408.432,12.119l-0.025-.025c0.227-1.681.876-3.242,0.972-5,0.139-2.548-.785-4.746-1.407-7.065Zm-38.13-.869a14.635,14.635,0,0,1,0,14.286l-0.029-.028c-0.131-1.34.581-2.488,0.861-3.734a15.9,15.9,0,0,0-.624-8.811,8.717,8.717,0,0,1-.237-1.685Zm106.6-3.032c1.5,2.307.659,4.876,0.808,7.332,0.046,0.756-.573.9-1.2,0.894a17.581,17.581,0,0,1-4.728-.432c1.2,0,2.409-.044,3.609.013a1.243,1.243,0,0,0,1.506-1.524c-0.055-2.08-.027-4.163-0.034-6.244Zm44.625,3.919a3.1,3.1,0,0,1-.15,1.054c-1.853,3.382-1.658,6.819-.361,10.305a0.8,0.8,0,0,1-.137.38c-2.356-2.55-2.008-8.973.629-11.758Zm-8.229-.43a26.777,26.777,0,0,0-.436,12.94l-0.022.022c-1.684-4.39-2.259-8.743.427-12.989ZM177.6,158.63c-0.638,2.034-2.58,1.314-3.843,1.521-2.419.4-5.059,0.7-7.014-1.517l0.028-.027a15.938,15.938,0,0,0,10.813,0Zm84.937,6.452c4.1,0.849,7.942-.068,11.673-1.72l0.02,0.023c-1.262,2.536-3.907,2.088-5.984,2.445-1.838.315-4,.818-5.747-0.709Zm8.658-19c2.033,1.911,1.684,4.5,1.555,6.8-0.081,1.464.224,3.427-1.553,4.454l-0.024-.021c1.432-3.738.953-7.476,0-11.214Zm25.142,13.755c1.836-.637,3.484-0.225,5.249-0.364C300.233,160.524,298.564,160.643,296.332,159.834ZM182.775,163.36a13.658,13.658,0,0,1,3.032-3.02l0.023,0.02a3.106,3.106,0,0,1-3.031,3.027Zm-43.311-2.573a3.668,3.668,0,0,1-3.118,2.665c1.111-1.291,1.734-2.4,3.1-2.682Zm148.6,2.6a3.266,3.266,0,0,1-3.027-2.6l0.018-.016c1.465,0.335,2.159,1.566,3.033,2.589Zm-29.9,2.129c0.01-1.139.009-2.279,0.035-3.418a0.658,0.658,0,0,1,.773-0.775,1.107,1.107,0,0,1,.757.943,1,1,0,0,1-.246.461l-0.733-.644c-0.461,1.136.35,2.436-.555,3.458ZM240,143.482c1.182,0.24.813,1.188,0.839,1.912a17.657,17.657,0,0,1-.2,3.648,37,37,0,0,0-.676-5.528Zm37.664-.831c-1.451-.353-2.155-1.571-3.026-2.6,0,0,.025-0.029.026-0.029a3.291,3.291,0,0,1,3.032,2.6Zm-119.13,18.118a3.555,3.555,0,0,1,2.6,2.587l-0.027.031a3.539,3.539,0,0,1-2.6-2.6Zm130.86-22.01c-0.462,1.224-1.537,1.639-2.612,2.054a3.072,3.072,0,0,1,2.591-2.079Zm-4.355,22.028a4.84,4.84,0,0,1-1.735-3.02l0.022-.022c1.4,0.542,1.586,1.772,1.731,3.026Zm4.334-22.053c0.758-.844,1.778-0.91,3.332-1.311a4.1,4.1,0,0,1-3.311,1.336Zm6.1,20.835c-1.072.489-1.559,0.076-2.215-.787A2.919,2.919,0,0,1,295.466,159.569ZM159.832,141.347a1.855,1.855,0,0,1-1.732,1.732l-0.026-.026a1.855,1.855,0,0,1,1.736-1.728Zm-19.064,17.287a2.79,2.79,0,0,1-1.3,2.153l-0.021-.017c0.069-.938.1-1.9,1.3-2.164Zm25.97,0c-0.778-.168-1.587-0.3-1.73-1.3l0.024-.02c0.78,0.163,1.582.3,1.734,1.294Zm15.193-19.47c0.671,0.066,1.471-.07,1.556,1.1a1.586,1.586,0,0,1-1.577-1.075Zm-2.6,18.172c-0.081,1.095-.809,1.327-1.735,1.293l-0.016-.017a2.127,2.127,0,0,1,1.726-1.3Zm90.56-12.551a1.244,1.244,0,0,1,1.3,1.294l-0.023.023a1.247,1.247,0,0,1-1.3-1.3ZM165.008,157.332a1.569,1.569,0,0,1-.872-1.72l0.035-.033c1.121,0.165.774,1.056,0.861,1.733Zm-3.872,6.024a1.577,1.577,0,0,1,1.725.869l-0.021.025a1.579,1.579,0,0,1-1.731-.863Zm101.358,1.765c-0.379-.073-0.871.108-1.052-0.4a0.546,0.546,0,0,1,.329-0.386c0.563-.1.677,0.324,0.761,0.749ZM138.579,141.348a1.072,1.072,0,0,1-1.163-.941,0.923,0.923,0,0,1,1.181.923ZM284.6,143.485a1.375,1.375,0,0,1,.619-1.469c0.508,0.811-.059,1.146-0.592,1.5Zm-9.076,19.031c-0.048.86-.673,0.864-1.3,0.869l-0.02-.023a1.357,1.357,0,0,1,1.3-.863Zm8.207-17.738c0.01-.618.016-1.239,0.869-1.293l0.027,0.026a1.37,1.37,0,0,1-.865,1.293S283.729,144.778,283.729,144.778ZM139.9,143.049a1.391,1.391,0,0,1,.864,1.3l-0.029.028c-0.851-.056-0.862-0.673-0.869-1.293Zm45.487-1.289a1.347,1.347,0,0,1,.868,1.3l-0.016.016c-0.864-.048-0.868-0.67-0.869-1.293Zm-46.364,0a1.368,1.368,0,0,1,.877,1.288l-0.034.034c-0.854-.065-0.861-0.682-0.858-1.306Zm154.692,2.612a1.349,1.349,0,0,1-1.3.433l-0.021-.021a1.363,1.363,0,0,1,1.3-.437Zm-17.785,17.7,0.87-.868s0.023,0.027.023,0.027a0.813,0.813,0,0,1-.871.862Zm-4.742-4.731a0.939,0.939,0,0,1-.438.862l-0.021-.024a0.94,0.94,0,0,1,.435-0.859Zm-0.438.862a0.95,0.95,0,0,1-.858.437l-0.026-.03a0.951,0.951,0,0,1,.863-0.431Zm-24.282-18.577a0.953,0.953,0,0,1-.869-0.428l0.03-.035a0.959,0.959,0,0,1,.86.442Zm31.655,3.862c0.105,0.156.211,0.311,0.307,0.473,0,0-.1.07-0.155,0.107-0.06-.186-0.119-0.372-0.179-0.558Zm-0.44,17.308a0.945,0.945,0,0,1-.86.435S276.8,161.2,276.8,161.2a0.948,0.948,0,0,1,.862-0.433Zm0.007-18.168a0.952,0.952,0,0,1,.433.86l-0.027.022a0.949,0.949,0,0,1-.438-0.855Zm-92.32-.843-0.556-.176,0.111-.161,0.462,0.316Zm90.582,20.308-0.434.427-0.017-.017,0.429-.431ZM139.012,141.777l-0.433-.429,0.018-.018,0.43,0.431Zm152.958,3.439,0.43-.431,0.021,0.021-0.432.429Zm-44.645-3.861-0.17-.12,0.209,0.082S247.325,141.355,247.325,141.355Zm-87.063-.437-0.43.429-0.022-.022,0.43-.429Zm86.231-1.317,0.174,0.11-0.195-.089ZM218.3,165.52V137.894l0.02-.024a2,2,0,0,1,.423,1.8q0.012,12.034,0,24.068a2,2,0,0,1-.423,1.8Zm-8.676-2.6c0.034-.674.088-1.355,1.043-1.213a0.953,0.953,0,0,1,.7,1.331c-0.324,2.148.667,2.734,2.657,2.519a40.992,40.992,0,0,1,4.281-.04l0.02,0.024c-2.281.884-4.647,0.311-6.971,0.36-1.045.022-.677-1.018-0.868-1.65-0.14-.464.737-1.7-0.818-1.291C209.666,162.962,209.627,162.923,209.627,162.923Zm8.676-25.029h-5.935c1.989-.239,3.988-0.909,5.955-0.024Zm-9.1,25.46q0.213-.215.425-0.431s0.039,0.039.039,0.04l-0.431.423S209.2,163.354,209.2,163.354Zm61.531-5.179a0.951,0.951,0,0,0-.863.431c-3.1,1.21-6.342.823-9.549,0.889-1.117.023-1.742-.219-1.724-1.528q0.082-6.239,0-12.479c-0.016-1.263.535-1.515,1.681-1.587a39.723,39.723,0,0,1,9.591.9,1.247,1.247,0,0,0,1.3,1.3c0.954,3.738,1.433,7.476,0,11.214A0.94,0.94,0,0,0,270.733,158.175Zm-105.7-.863c-0.087-.677.26-1.568-0.861-1.733-0.006-1.287.1-2.586-.035-3.86-0.673-6.56,4.833-9.046,10.366-8.065,1.59,0.282,2.746,1.533,4.368,1.588,0.622,2.319,1.546,4.517,1.407,7.065-0.1,1.762-.745,3.323-0.972,5a2.124,2.124,0,0,0-1.726,1.3,15.938,15.938,0,0,1-10.813,0C166.614,157.608,165.812,157.475,165.032,157.312Z"/>
    <rect class="cls-7" x="11.875" y="187.719" width="359.813" height="2.719"/>
    <rect id="Rectangle_1_copy" data-name="Rectangle 1 copy" class="cls-8" x="11.875" y="407.313" width="396.219" height="2.687"/>
  </g>
</svg>
